<svg xmlns="http://www.w3.org/2000/svg" xmlns:xlink="http://www.w3.org/1999/xlink" width="500" zoomAndPan="magnify" viewBox="0 0 375 374.999991" height="500" preserveAspectRatio="xMidYMid meet" version="1.0"><defs><clipPath id="fadd601537"><path d="M 88.78125 97.808594 L 286.03125 97.808594 L 286.03125 277.058594 L 88.78125 277.058594 Z M 88.78125 97.808594 " clip-rule="nonzero"/></clipPath><clipPath id="7ec42c407b"><path d="M 88.78125 97.808594 L 286.03125 97.808594 L 286.03125 277.058594 L 88.78125 277.058594 Z M 88.78125 97.808594 " clip-rule="nonzero"/></clipPath></defs><rect x="-37.5" width="450" fill="#ffffff" y="-37.499999" height="449.999989" fill-opacity="1"/><rect x="-37.5" width="450" fill="#ffffff" y="-37.499999" height="449.999989" fill-opacity="1"/><g clip-path="url(#fadd601537)"><path fill="#000000" d="M 286.207031 148.867188 C 278.375 159.945312 268.878906 169.894531 257.605469 177.519531 C 258.335938 169.988281 258.085938 162.59375 256.035156 155.316406 C 255.054688 158.332031 254.136719 161.359375 252.59375 164.203125 C 250.335938 157.480469 247.5 150.917969 243.453125 145.0625 C 243.273438 144.808594 243.273438 144.617188 243.421875 144.363281 C 249.410156 133.648438 255.996094 122.96875 261.839844 112.320312 C 252.816406 119.496094 244.066406 127.023438 235.179688 134.375 C 234.964844 134.558594 234.828125 134.617188 234.59375 134.378906 C 234.246094 134.023438 233.84375 133.71875 233.46875 133.390625 C 229.804688 130.148438 225.851562 127.308594 221.636719 124.824219 C 220.894531 124.386719 220.96875 124.554688 221.300781 123.785156 C 223.464844 118.65625 225.914062 113.507812 227.90625 108.378906 C 222.804688 112.195312 217.859375 116.296875 212.796875 120.1875 C 212.609375 120.335938 212.460938 120.488281 212.164062 120.359375 C 210.371094 119.589844 208.511719 119.019531 206.644531 118.488281 C 202.5 117.304688 198.285156 116.480469 193.996094 116.054688 C 193.644531 116.019531 193.496094 115.882812 193.390625 115.550781 C 191.367188 109.691406 189.660156 103.542969 187.503906 97.824219 C 185.660156 103.683594 183.722656 109.515625 181.878906 115.375 C 181.738281 115.820312 181.503906 115.980469 181.058594 116.023438 C 178.105469 116.328125 175.1875 116.84375 172.289062 117.492188 C 169.285156 118.164062 166.335938 119.039062 163.453125 120.121094 C 162.949219 120.308594 162.5 120.40625 162.132812 119.894531 C 157.050781 116.140625 152.210938 112 147.0625 108.375 C 149.304688 113.601562 151.625 118.792969 153.894531 124.007812 C 154.089844 124.457031 154.089844 124.457031 153.660156 124.730469 C 151.019531 126.347656 148.425781 128.042969 145.964844 129.925781 C 144.121094 131.332031 142.359375 132.835938 140.617188 134.367188 C 140.230469 134.710938 140.226562 134.605469 139.996094 134.367188 C 131.066406 127.035156 122.160156 119.394531 113.148438 112.289062 C 119.164062 122.996094 125.441406 133.585938 131.585938 144.230469 C 131.796875 144.59375 131.78125 144.839844 131.554688 145.171875 C 127.722656 151.082031 124.746094 157.4375 122.722656 164.195312 C 121.195312 161.222656 120.324219 158.34375 119.269531 155.195312 C 117.117188 162.460938 117.160156 170.027344 117.585938 177.46875 C 106.285156 169.601562 96.714844 160.042969 88.8125 148.683594 C 87.960938 168.296875 104.882812 206.179688 116.4375 222.3125 C 110.503906 217.65625 105.09375 212.050781 99.941406 206.460938 C 120.019531 239.351562 153.523438 261.652344 187.855469 277.175781 C 222.734375 260.382812 254.226562 239.976562 275.421875 206.675781 C 275.167969 206.617188 275.085938 206.847656 274.964844 206.980469 C 270.136719 212.347656 264.972656 217.464844 259.269531 221.90625 C 259.28125 221.894531 259.292969 221.878906 259.300781 221.863281 C 259.269531 221.824219 259.234375 221.78125 259.199219 221.742188 C 271.464844 202.949219 286.039062 171.398438 286.207031 148.867188 Z M 286.207031 148.867188 " fill-opacity="1" fill-rule="nonzero"/></g><path fill="#000000" d="M 260.769531 142.484375 C 259.863281 141.632812 258.8125 140.964844 257.839844 140.191406 C 257.738281 140.109375 257.65625 139.949219 257.457031 140.019531 C 257.828125 145.648438 259.507812 143.496094 254.886719 147 C 254.796875 147.070312 254.640625 147.101562 254.671875 147.292969 C 260.34375 148.816406 258.335938 147.128906 260.136719 152.824219 C 263.382812 147.757812 260.847656 148.835938 266.945312 148.726562 C 266.113281 147.609375 265.144531 146.523438 264.152344 145.519531 C 263.945312 145.324219 263.863281 145.132812 263.957031 144.835938 C 264.402344 143.363281 264.683594 141.953125 265.050781 140.421875 C 263.832031 141.113281 262.65625 141.820312 261.449219 142.527344 C 261.1875 142.679688 261.007812 142.707031 260.769531 142.484375 Z M 260.769531 142.484375 " fill-opacity="1" fill-rule="nonzero"/><path fill="#000000" d="M 108.167969 148.527344 C 113.835938 148.734375 111.789062 147.214844 114.628906 152.011719 C 114.722656 152.175781 114.773438 152.386719 115.007812 152.464844 C 115.300781 151.070312 115.714844 149.75 116.066406 148.410156 C 116.148438 148.105469 116.300781 147.941406 116.609375 147.871094 C 117.789062 147.625 118.964844 147.363281 120.136719 147.097656 C 120.261719 147.070312 120.433594 147.132812 120.515625 146.957031 C 115.914062 143.125 117.007812 145.796875 117.496094 139.671875 C 117.339844 139.667969 117.269531 139.757812 117.179688 139.828125 C 116.246094 140.585938 115.300781 141.335938 114.371094 142.097656 C 113.800781 142.566406 113.898438 142.472656 113.378906 142.171875 C 112.273438 141.539062 111.164062 140.90625 109.992188 140.234375 C 111.117188 146.375 112.503906 143.484375 108.167969 148.527344 Z M 108.167969 148.527344 " fill-opacity="1" fill-rule="nonzero"/><path fill="#000000" d="M 112.730469 158.589844 C 113.144531 158.210938 113.585938 157.851562 113.953125 157.359375 C 111.351562 157.304688 112.144531 157.8125 111.015625 155.429688 C 109.679688 158.191406 111.15625 157.144531 108.179688 157.5625 C 110.460938 159.582031 109.609375 158.523438 109.246094 161.210938 C 111.613281 159.632812 110.582031 159.742188 112.949219 161.070312 C 113.074219 160.820312 112.613281 159.648438 112.523438 159.304688 C 112.40625 158.980469 112.5 158.804688 112.730469 158.589844 Z M 112.730469 158.589844 " fill-opacity="1" fill-rule="nonzero"/><path fill="#000000" d="M 265.871094 157.773438 C 265.554688 157.789062 265.417969 157.664062 265.324219 157.367188 C 265.175781 156.890625 264.984375 156.425781 264.902344 155.929688 C 264.882812 155.828125 264.878906 155.707031 264.707031 155.695312 C 263.449219 158.101562 264.300781 157.484375 261.675781 157.464844 C 262.277344 158.511719 263.65625 158.75 262.8125 160.136719 C 262.636719 160.433594 262.507812 160.789062 262.515625 161.230469 C 264.949219 159.871094 263.902344 159.988281 266.238281 161.457031 C 265.894531 159.140625 265.183594 159.8125 267.203125 158.203125 C 267.289062 158.128906 267.460938 158.109375 267.414062 157.925781 C 266.902344 157.8125 266.386719 157.753906 265.871094 157.773438 Z M 265.871094 157.773438 " fill-opacity="1" fill-rule="nonzero"/><path fill="#000000" d="M 168.371094 111.320312 C 168.816406 111.460938 168.824219 111.445312 168.699219 111.875 C 168.609375 112.1875 168.414062 112.46875 168.421875 112.851562 C 170.648438 111.570312 169.472656 111.761719 171.601562 112.785156 C 171.414062 110.613281 171.382812 111.277344 173.457031 110.3125 C 173.386719 110.0625 172.160156 109.914062 171.859375 109.816406 C 171.5625 109.765625 171.507812 109.613281 171.546875 109.347656 C 171.609375 108.953125 171.660156 108.558594 171.632812 108.023438 C 169.707031 109.75 170.507812 109.429688 168.167969 108.558594 C 169.550781 110.804688 168.414062 109.753906 167.582031 111.328125 C 167.867188 111.367188 168.109375 111.234375 168.371094 111.320312 Z M 168.371094 111.320312 " fill-opacity="1" fill-rule="nonzero"/><path fill="#000000" d="M 202.136719 110.679688 C 203.921875 111.308594 204.132812 111.023438 203.90625 113.078125 C 204.242188 112.972656 204.441406 112.796875 204.617188 112.625 C 205.496094 111.71875 206.226562 112.738281 207.179688 113.03125 C 206.394531 111.003906 206.441406 111.785156 207.871094 111.507812 C 206.429688 109.910156 206.167969 110.824219 207.171875 109.003906 C 205.738281 109.179688 205.601562 110.222656 204.328125 108.921875 C 204.136719 108.761719 203.988281 108.542969 203.707031 108.453125 C 203.644531 108.878906 203.761719 109.253906 203.796875 109.632812 C 203.835938 110.050781 203.84375 110.058594 203.449219 110.140625 C 203.023438 110.28125 202.21875 110.242188 201.917969 110.519531 C 201.957031 110.632812 202.046875 110.652344 202.136719 110.679688 Z M 202.136719 110.679688 " fill-opacity="1" fill-rule="nonzero"/><path fill="#000000" d="M 275.414062 206.648438 C 275.410156 206.65625 275.414062 206.667969 275.421875 206.671875 C 275.421875 206.675781 275.417969 206.675781 275.417969 206.675781 C 275.421875 206.675781 275.425781 206.679688 275.429688 206.679688 C 275.425781 206.667969 275.421875 206.660156 275.414062 206.648438 Z M 275.414062 206.648438 " fill-opacity="1" fill-rule="nonzero"/><path fill="#000000" d="M 275.382812 206.585938 C 275.390625 206.605469 275.402344 206.628906 275.414062 206.648438 C 275.421875 206.621094 275.453125 206.582031 275.382812 206.585938 Z M 275.382812 206.585938 " fill-opacity="1" fill-rule="nonzero"/><path fill="#00f310" d="M 247.144531 166.949219 C 234.320312 119.484375 172.65625 105.523438 140.695312 142.996094 C 115.464844 171.746094 123.777344 219.519531 157.558594 237.703125 C 205.726562 264.222656 261.25 219.839844 247.144531 166.949219 Z M 245.855469 185.890625 C 244.191406 232.785156 189.871094 258.796875 152.460938 230.382812 C 117.363281 204.261719 123.472656 147.4375 163.75 129.882812 C 202.667969 112.089844 248.4375 142.992188 245.855469 185.890625 Z M 245.855469 185.890625 " fill-opacity="1" fill-rule="nonzero"/><path fill="#00f310" d="M 259.199219 221.738281 C 259.15625 221.789062 259.105469 221.835938 259.0625 221.886719 C 259.117188 222.003906 259.257812 221.964844 259.300781 221.863281 C 259.269531 221.820312 259.234375 221.777344 259.199219 221.738281 Z M 259.199219 221.738281 " fill-opacity="1" fill-rule="nonzero"/><path fill="#00f310" d="M 116.433594 222.339844 L 116.449219 222.328125 L 116.4375 222.3125 Z M 116.433594 222.339844 " fill-opacity="1" fill-rule="nonzero"/><path fill="#00f310" d="M 203.996094 205.671875 C 209 202.8125 213.691406 199.464844 218.199219 195.875 C 218.480469 195.652344 218.628906 195.382812 218.695312 195.042969 C 219.378906 191.640625 219.875 188.21875 219.988281 184.742188 C 220.085938 181.769531 219.933594 178.816406 219.496094 175.875 C 219.445312 175.53125 219.316406 175.234375 219.054688 175 C 214.800781 170.953125 210.234375 167.183594 204.984375 164.492188 C 204.65625 164.320312 204.40625 164.339844 204.117188 164.527344 C 198.515625 168.039062 192.84375 171.449219 187.199219 174.890625 C 186.953125 175.042969 186.785156 175.175781 186.785156 175.53125 C 186.804688 178.792969 186.796875 182.058594 186.796875 185.320312 C 186.816406 185.320312 186.835938 185.320312 186.855469 185.320312 C 186.855469 188.546875 186.859375 191.777344 186.847656 195.003906 C 186.847656 195.371094 186.941406 195.609375 187.273438 195.816406 C 192.480469 199.128906 197.71875 202.386719 202.949219 205.664062 C 203.34375 205.914062 203.625 205.902344 203.996094 205.671875 Z M 214.066406 197.746094 C 214.003906 197.710938 214.066406 197.625 214.121094 197.648438 C 214.15625 197.710938 214.085938 197.714844 214.066406 197.746094 Z M 214.625 173.082031 C 214.585938 173.03125 214.621094 173.003906 214.660156 172.984375 C 214.648438 173.011719 214.675781 173.09375 214.625 173.082031 Z M 199.210938 169.21875 C 201.015625 168.277344 202.851562 167.40625 204.777344 166.726562 C 205.324219 166.53125 205.746094 166.574219 206.207031 166.941406 C 209.007812 168.976562 211.886719 170.902344 214.660156 172.980469 C 214.394531 173.113281 214.203125 172.90625 214.007812 172.804688 C 211.632812 171.550781 209.253906 170.308594 206.863281 169.089844 C 204.410156 167.8125 201.234375 169.472656 198.675781 169.484375 C 198.851562 169.398438 199.035156 169.308594 199.210938 169.21875 Z M 194.335938 198.246094 C 193.332031 197.886719 192.425781 197.316406 191.449219 196.886719 C 190.492188 196.277344 189.648438 195.480469 188.710938 194.832031 C 188.421875 194.617188 188.292969 194.351562 188.296875 193.980469 C 188.339844 190.179688 188.265625 186.394531 188.359375 182.59375 C 188.964844 185.777344 189.214844 188.855469 189.910156 191.972656 C 190.671875 194.835938 193.179688 196.804688 195.433594 198.539062 C 195.019531 198.519531 194.679688 198.375 194.335938 198.246094 Z M 199.519531 202.191406 C 198.640625 201.527344 197.695312 200.742188 197.140625 199.824219 L 197.113281 199.835938 L 197.128906 199.816406 C 199.09375 201.046875 202.453125 202.679688 204.769531 201.898438 C 207.839844 200.773438 210.710938 199.203125 213.671875 197.828125 C 213.796875 197.777344 213.910156 197.660156 214.058594 197.746094 C 210.773438 199.894531 207.523438 202.109375 204.109375 204.058594 C 202.847656 204.882812 200.65625 202.820312 199.519531 202.191406 Z M 199.519531 202.191406 " fill-opacity="1" fill-rule="nonzero"/><path fill="#00f310" d="M 168.695312 164.410156 C 163.03125 167.179688 157.832031 170.964844 153.273438 175.308594 C 152.941406 175.636719 152.738281 175.996094 152.695312 176.472656 C 152.625 177.265625 152.496094 178.054688 152.425781 178.847656 C 151.890625 184.292969 152.457031 189.816406 153.789062 195.109375 C 153.878906 195.480469 154.039062 195.792969 154.34375 196.042969 C 158.675781 199.683594 163.261719 203.003906 168.128906 205.890625 C 168.492188 206.113281 168.757812 206.085938 169.085938 205.855469 C 174.289062 202.4375 179.492188 199.011719 184.800781 195.761719 C 185.066406 195.609375 185.148438 195.433594 185.148438 195.140625 C 185.140625 191.859375 185.144531 188.578125 185.144531 185.292969 C 185.140625 185.292969 185.136719 185.292969 185.132812 185.292969 C 185.132812 182.027344 185.128906 178.765625 185.136719 175.5 C 185.136719 175.214844 185.074219 175.03125 184.8125 174.859375 C 179.707031 171.394531 174.542969 168.003906 169.464844 164.5 C 169.207031 164.324219 168.984375 164.289062 168.695312 164.410156 Z M 180.425781 195.109375 C 183.324219 192.261719 183.027344 187.929688 183.722656 184.195312 C 184.105469 187.511719 183.925781 190.898438 184.007812 194.25 C 184.007812 194.648438 183.875 194.882812 183.523438 195.089844 C 180.554688 196.941406 177.324219 198.394531 174.683594 200.730469 C 173.566406 201.5 169.472656 205.214844 168.328125 204.390625 C 165.253906 202.546875 162.238281 200.550781 159.394531 198.386719 L 159.375 198.394531 L 159.382812 198.378906 C 160.867188 199.167969 162.410156 199.816406 163.945312 200.492188 C 165.953125 201.214844 167.878906 202.859375 170.128906 202.125 C 174.101562 200.699219 177.476562 198.074219 180.425781 195.109375 Z M 172.738281 168.308594 C 173.28125 168.582031 173.820312 168.867188 174.332031 169.21875 C 166.292969 167.058594 168.234375 168.042969 161.078125 171.140625 C 161 171.273438 160.53125 171.460938 160.320312 171.480469 C 162.738281 169.835938 165.132812 168.195312 167.585938 166.601562 C 167.917969 166.378906 168.21875 166.339844 168.574219 166.46875 C 169.976562 167.042969 171.375 167.644531 172.738281 168.308594 Z M 172.738281 168.308594 " fill-opacity="1" fill-rule="nonzero"/><path fill="#00f310" d="M 226.246094 151.089844 C 221.910156 147.050781 217.128906 143.523438 212.167969 140.292969 C 211.996094 140.183594 211.847656 140.074219 211.609375 140.128906 C 207.210938 140.984375 203.160156 143.082031 199.40625 145.476562 C 202.019531 150.574219 203.945312 156.035156 204.6875 161.742188 C 204.785156 162.390625 205.09375 162.808594 205.667969 163.109375 C 210.953125 166.066406 216.082031 169.511719 220.273438 173.917969 C 220.527344 174.234375 220.519531 174.242188 220.875 174.058594 C 224.8125 171.835938 228.757812 169.625 232.65625 167.34375 C 233.355469 167.183594 232.371094 164.402344 232.292969 163.8125 C 230.914062 159.363281 229.492188 154.550781 226.246094 151.089844 Z M 215.167969 167.402344 C 212.871094 166.011719 210.488281 164.714844 208.175781 163.335938 C 207.28125 162.726562 206.023438 162.339844 205.925781 161.097656 C 205.535156 158.359375 204.765625 155.835938 204.238281 153.109375 C 205.214844 155.25 206.160156 157.25 207.0625 159.28125 C 207.890625 161.164062 207.910156 161.144531 209.535156 162.453125 C 211.699219 164.324219 214.089844 165.992188 216.15625 167.9375 C 215.765625 167.78125 215.460938 167.636719 215.167969 167.402344 Z M 227.042969 168.183594 C 226.957031 168.132812 227.027344 168.132812 227.066406 168.125 C 227.082031 168.15625 227.066406 168.195312 227.042969 168.183594 Z M 231.011719 163.789062 C 231.136719 164.214844 231.199219 164.65625 231.332031 165.078125 C 231.425781 165.378906 231.328125 165.570312 231.121094 165.765625 C 230.726562 166.132812 230.308594 166.46875 229.847656 166.746094 C 228.953125 167.230469 228.050781 167.878906 227.066406 168.117188 C 228.070312 166.152344 228.851562 164.050781 228.3125 161.804688 C 227.113281 155.054688 222.761719 149.835938 217.5625 145.640625 C 220.445312 147.246094 222.828125 149.414062 225.101562 151.773438 C 227.992188 155.222656 229.660156 159.542969 231.011719 163.789062 Z M 231.011719 163.789062 " fill-opacity="1" fill-rule="nonzero"/><path fill="#00f310" d="M 142.53125 165.214844 C 142.371094 166.011719 142.234375 166.816406 142.085938 167.617188 C 142.066406 167.90625 142.300781 168 142.472656 168.125 C 145.535156 170.339844 148.65625 172.476562 151.796875 174.582031 C 152.042969 174.757812 152.207031 174.730469 152.394531 174.496094 C 156.710938 169.722656 162.054688 166.039062 167.675781 162.964844 C 168.035156 162.765625 168.246094 162.492188 168.332031 162.066406 C 169.1875 158.144531 170.207031 154.25 171.640625 150.496094 C 172.171875 149.09375 172.746094 147.710938 173.292969 146.3125 C 173.46875 145.867188 173.445312 145.832031 173.09375 145.574219 C 170.320312 143.496094 167.484375 141.503906 164.390625 139.925781 C 164.003906 139.726562 163.730469 139.75 163.382812 139.984375 C 160.886719 141.679688 158.421875 143.425781 155.960938 145.175781 C 152.972656 147.578125 149.386719 149.601562 147.289062 152.882812 C 145.160156 156.753906 143.460938 160.886719 142.53125 165.214844 Z M 164.082031 161.457031 C 164.886719 160.84375 165.480469 160.117188 165.910156 159.207031 C 167.089844 156.808594 168.195312 154.367188 169.480469 152.023438 C 168.636719 155.046875 167.734375 158.097656 166.960938 161.152344 C 166.875 161.476562 166.703125 161.707031 166.394531 161.863281 C 163.429688 163.355469 160.601562 165.03125 157.675781 166.613281 C 159.652344 164.726562 161.957031 163.1875 164.082031 161.457031 Z M 145.363281 160.511719 C 147.9375 153.082031 152.292969 148.332031 159.019531 144.390625 C 153.886719 148.722656 148.851562 153.75 147.382812 160.609375 C 146.511719 163.558594 146.621094 166.125 147.910156 168.933594 C 147.773438 169.078125 147.664062 168.945312 147.5625 168.902344 C 146.296875 168.394531 145.136719 167.714844 144.066406 166.875 C 143.441406 166.378906 143.464844 166.378906 143.679688 165.617188 C 144.15625 163.890625 144.695312 162.175781 145.363281 160.511719 Z M 145.363281 160.511719 " fill-opacity="1" fill-rule="nonzero"/><path fill="#00f310" d="M 218.738281 221.074219 C 226.527344 215.59375 226.671875 217.695312 230.242188 208.042969 C 230.542969 207.1875 230.804688 206.320312 231.027344 205.4375 C 231.144531 204.972656 231.105469 204.589844 230.703125 204.25 C 227.542969 201.171875 223.792969 198.828125 219.96875 196.671875 C 219.78125 196.570312 219.652344 196.550781 219.480469 196.710938 C 219.238281 196.9375 218.960938 197.128906 218.710938 197.351562 C 214.441406 201.027344 209.960938 204.527344 205.019531 207.257812 C 204.707031 207.421875 204.554688 207.640625 204.492188 207.976562 C 203.472656 213.554688 201.945312 219.035156 199.375 224.117188 C 198.648438 225.496094 208.675781 226.867188 209.851562 226.890625 C 210.082031 226.953125 210.296875 226.832031 210.527344 226.683594 C 213.28125 224.835938 215.976562 222.90625 218.738281 221.074219 Z M 215.304688 222.75 C 215.296875 222.757812 215.289062 222.761719 215.277344 222.765625 C 215.292969 222.75 215.304688 222.738281 215.320312 222.726562 C 215.3125 222.734375 215.308594 222.746094 215.304688 222.75 Z M 214.777344 202.089844 C 214.789062 202.085938 214.800781 202.082031 214.8125 202.082031 C 214.796875 202.097656 214.777344 202.109375 214.757812 202.121094 C 214.761719 202.109375 214.765625 202.09375 214.777344 202.089844 Z M 204.015625 218 L 204.035156 218 C 204.03125 218 204.027344 218.007812 204.027344 218.007812 Z M 204.042969 217.988281 C 204.496094 214.84375 205.183594 211.738281 205.675781 208.597656 C 205.730469 208.285156 205.839844 208.0625 206.117188 207.878906 C 208.867188 206.039062 211.585938 204.140625 214.363281 202.339844 C 214.492188 202.132812 214.78125 202.242188 214.445312 202.421875 C 212.398438 204.390625 210.246094 206.246094 208.191406 208.207031 C 207.828125 208.539062 207.542969 208.917969 207.363281 209.375 C 206.710938 211.089844 205.996094 212.78125 205.367188 214.5 C 204.871094 215.636719 204.617188 216.886719 204.042969 217.988281 Z M 209.320312 226.320312 C 207.75 226.070312 206.21875 225.648438 204.59375 225.15625 C 206.132812 225.191406 207.539062 225.367188 209.0625 225.445312 C 209.558594 225.488281 210.011719 225.363281 210.457031 225.160156 C 212.09375 224.441406 213.644531 223.507812 215.261719 222.777344 C 213.824219 223.882812 212.3125 224.96875 210.792969 225.996094 C 210.332031 226.292969 209.867188 226.410156 209.320312 226.320312 Z M 209.320312 226.320312 " fill-opacity="1" fill-rule="nonzero"/><path fill="#00f310" d="M 165.507812 139.390625 C 180.472656 147.011719 168.820312 143.574219 184.730469 142.515625 C 189.046875 142.316406 193.382812 142.820312 197.574219 143.871094 C 197.960938 143.976562 198.292969 143.960938 198.640625 143.78125 C 202.285156 142.050781 205.953125 140.34375 209.800781 139.09375 C 210.226562 138.953125 210.226562 138.949219 209.992188 138.589844 C 208.835938 136.796875 207.578125 135.082031 206.226562 133.425781 C 205.75 132.839844 205.175781 132.460938 204.472656 132.226562 C 196.761719 129.601562 188.46875 128.796875 180.390625 129.8125 C 177.785156 130.242188 170.289062 131.394531 168.835938 133.375 C 167.445312 135.1875 166.34375 137.257812 164.898438 139.003906 C 165.023438 139.304688 165.300781 139.292969 165.507812 139.390625 Z M 165.507812 139.390625 " fill-opacity="1" fill-rule="nonzero"/><path fill="#00f310" d="M 143.839844 204.195312 C 142.410156 205.308594 147.554688 213.953125 148.550781 215.367188 C 148.847656 215.796875 149.175781 216.234375 149.59375 216.496094 C 153.683594 218.847656 157.519531 221.625 161.546875 224.085938 C 162.585938 224.726562 163.625 225.371094 164.652344 226.03125 C 165.195312 226.378906 165.757812 226.492188 166.394531 226.402344 C 169.003906 226.109375 171.480469 225.515625 174.046875 224.832031 C 171.378906 219.660156 169.464844 214.300781 168.492188 208.589844 C 168.445312 208.308594 168.355469 208.089844 168.070312 207.925781 C 166.613281 207.09375 165.207031 206.179688 163.835938 205.214844 C 160.21875 202.675781 156.792969 199.898438 153.601562 196.847656 C 153.480469 196.753906 153.359375 196.675781 153.222656 196.84375 C 149.75 198.773438 146.316406 201.027344 143.839844 204.195312 Z M 169.023438 225.304688 C 168.121094 225.5 167.203125 225.640625 166.300781 225.84375 C 165.867188 225.9375 165.503906 225.855469 165.144531 225.625 C 163.691406 224.652344 162.140625 223.773438 160.722656 222.777344 C 160.660156 222.746094 160.59375 222.710938 160.53125 222.679688 C 160.601562 222.695312 160.691406 222.675781 160.726562 222.769531 C 165.484375 224.78125 164.992188 225.332031 170.476562 224.898438 C 169.957031 225.140625 169.480469 225.203125 169.023438 225.304688 Z M 163.300781 205.816406 C 164.535156 206.667969 165.761719 207.535156 167.015625 208.359375 C 167.417969 208.625 167.644531 208.945312 167.746094 209.40625 C 168.515625 212.816406 169.296875 216.171875 170.0625 219.582031 C 168.75 216.5 167.613281 213.480469 166.332031 210.410156 C 166.183594 210.042969 165.988281 209.71875 165.695312 209.441406 C 163.21875 207.105469 160.777344 204.726562 158.277344 202.410156 C 160.058594 203.316406 161.617188 204.71875 163.300781 205.816406 Z M 163.300781 205.816406 " fill-opacity="1" fill-rule="nonzero"/><path fill="#00f310" d="M 207.128906 227.523438 C 204.179688 227.164062 201.277344 226.570312 198.40625 225.816406 C 197.898438 225.683594 197.394531 225.625 196.871094 225.664062 C 190.308594 226.277344 183.714844 226.308594 177.152344 225.730469 C 176.664062 225.691406 176.191406 225.699219 175.71875 225.796875 C 172.261719 226.554688 168.828125 227.429688 165.261719 227.589844 C 166.425781 229.820312 168.226562 231.890625 169.828125 233.894531 C 172.027344 236.171875 180.285156 236.964844 183.585938 237.320312 C 190.3125 237.839844 197.136719 237.125 203.570312 235.054688 C 206.011719 234.210938 208.066406 229.972656 209.472656 227.773438 C 208.671875 227.644531 207.921875 227.617188 207.128906 227.523438 Z M 207.105469 229.109375 C 205.746094 230.941406 204.675781 233.367188 202.371094 234.15625 C 197.929688 235.621094 193.25 236.28125 188.585938 236.296875 C 183.277344 236.339844 177.929688 235.695312 172.839844 234.140625 C 171.96875 233.878906 171.238281 233.433594 170.609375 232.753906 C 169.40625 231.34375 168.050781 230.003906 167.066406 228.4375 C 177.800781 236.660156 196.3125 237.558594 207.105469 228.820312 C 207.109375 228.820312 207.109375 228.824219 207.109375 228.824219 C 207.109375 228.820312 207.109375 228.816406 207.109375 228.816406 C 207.136719 228.84375 207.179688 228.859375 207.210938 228.882812 C 207.191406 228.894531 207.179688 228.90625 207.167969 228.910156 C 207.179688 228.976562 207.152344 229.042969 207.105469 229.109375 Z M 207.105469 229.109375 " fill-opacity="1" fill-rule="nonzero"/><path fill="#00f310" d="M 207.109375 228.824219 C 207.125 228.863281 207.121094 228.925781 207.164062 228.910156 C 207.160156 228.882812 207.140625 228.84375 207.109375 228.824219 Z M 207.109375 228.824219 " fill-opacity="1" fill-rule="nonzero"/><path fill="#00f310" d="M 140.320312 172.546875 C 140.582031 172.28125 140.589844 172.292969 140.828125 172.558594 C 142.683594 174.746094 144.621094 176.847656 147.148438 178.269531 C 147.507812 178.472656 147.605469 178.714844 147.609375 179.109375 C 147.667969 182.949219 147.78125 186.785156 147.992188 190.617188 C 148.003906 190.855469 147.9375 190.980469 147.742188 191.113281 C 144.757812 193.25 142.804688 196.574219 141.898438 200.105469 C 144.574219 197.710938 147.351562 195.507812 150.476562 193.710938 C 150.976562 193.414062 150.972656 193.417969 150.894531 192.839844 C 150.101562 187.695312 150.046875 182.4375 150.710938 177.269531 C 150.75 176.933594 150.671875 176.734375 150.375 176.546875 C 147.191406 174.546875 144.101562 172.394531 140.941406 170.363281 C 139.992188 169.625 137.75 173.003906 137.152344 173.6875 C 135.925781 175.328125 135.460938 180.875 135.371094 183.085938 C 136.636719 179.53125 137.582031 175.40625 140.320312 172.546875 Z M 140.320312 172.546875 " fill-opacity="1" fill-rule="nonzero"/><path fill="#00f310" d="M 176.898438 155.628906 C 179.644531 149.601562 185.4375 145.851562 192.0625 145.988281 C 187.28125 144.382812 182.082031 145.085938 177.347656 146.511719 C 176.957031 146.632812 176.730469 146.867188 176.574219 147.234375 C 174.734375 151.679688 173.105469 156.292969 171.917969 160.925781 C 172.003906 161.164062 172.320312 161.230469 172.535156 161.367188 C 173.34375 161.882812 174.125 162.4375 174.996094 163.089844 C 174.792969 160.414062 175.808594 157.988281 176.898438 155.628906 Z M 176.898438 155.628906 " fill-opacity="1" fill-rule="nonzero"/><path fill="#00f310" d="M 179.472656 208.011719 C 181.910156 204.824219 184.902344 201.910156 188.65625 200.335938 C 188.050781 199.96875 187.503906 199.628906 187.011719 199.214844 C 186.769531 199.007812 186.585938 198.980469 186.296875 199.164062 C 182.011719 201.816406 177.769531 204.535156 173.519531 207.242188 C 173.222656 207.429688 173.136719 207.632812 173.207031 207.960938 C 174.035156 211.847656 174.753906 215.890625 176.636719 219.417969 C 175.671875 215.414062 177.078125 211.253906 179.472656 208.011719 Z M 179.472656 208.011719 " fill-opacity="1" fill-rule="nonzero"/><path fill="#00f310" d="M 140.152344 168.253906 C 140.449219 168.019531 140.605469 167.742188 140.652344 167.375 C 141.503906 161.730469 144.15625 156.636719 146.867188 151.675781 C 146.296875 151.367188 145.722656 151.210938 145.171875 151 C 144.902344 150.898438 144.746094 150.964844 144.582031 151.210938 C 139.316406 158.421875 135.625 166.722656 134.46875 175.628906 C 135.832031 172.78125 137.730469 170.277344 140.152344 168.253906 Z M 136.515625 170.121094 C 136.394531 169.964844 136.488281 169.859375 136.53125 169.753906 C 137.320312 167.679688 138.179688 165.636719 138.851562 163.515625 C 139.652344 161.324219 141.15625 159.476562 142.542969 157.632812 C 141.671875 160.066406 140.4375 162.472656 139.980469 165.089844 C 139.820312 165.839844 139.492188 166.464844 138.917969 166.988281 C 137.933594 167.890625 137.246094 169.015625 136.515625 170.121094 Z M 136.515625 170.121094 " fill-opacity="1" fill-rule="nonzero"/><path fill="#00f310" d="M 239.980469 171.671875 C 238.414062 164.386719 235.230469 157.488281 230.730469 151.554688 C 230.339844 151.039062 230.339844 151.023438 229.78125 151.320312 C 228.820312 151.835938 228.953125 151.5625 229.410156 152.519531 C 231.714844 157.222656 233.84375 162.097656 234.6875 167.308594 C 234.734375 167.617188 234.878906 167.859375 235.113281 168.0625 C 237.574219 170.191406 239.152344 173.113281 240.683594 175.894531 C 240.488281 174.476562 240.25 173.074219 239.980469 171.671875 Z M 233.671875 158.949219 C 233.671875 158.953125 233.675781 158.953125 233.675781 158.953125 C 233.667969 158.953125 233.65625 158.957031 233.648438 158.957031 C 233.65625 158.953125 233.664062 158.953125 233.671875 158.949219 Z M 238.597656 170.226562 C 237.929688 169.027344 237.195312 167.871094 236.265625 166.847656 C 235.914062 166.464844 235.769531 165.984375 235.636719 165.503906 C 235.28125 164.21875 235 162.914062 234.535156 161.660156 C 234.261719 160.941406 234.011719 160.210938 233.742188 159.484375 C 233.679688 159.308594 233.601562 159.144531 233.679688 158.953125 C 234.617188 160.664062 235.996094 162.144531 236.558594 164.042969 C 237.140625 166.316406 238.269531 168.304688 238.898438 170.570312 C 238.703125 170.476562 238.664062 170.339844 238.597656 170.226562 Z M 238.597656 170.226562 " fill-opacity="1" fill-rule="nonzero"/><path fill="#00f310" d="M 189.882812 223.050781 C 192.054688 222.933594 194.164062 222.417969 196.285156 221.984375 C 196.75 221.886719 197.015625 221.660156 197.210938 221.230469 C 198.699219 217.90625 200.050781 214.492188 200.636719 210.882812 C 200.664062 210.714844 200.710938 210.554688 200.554688 210.421875 C 199.988281 209.933594 199.421875 209.441406 198.785156 208.890625 C 198.699219 211.792969 197.421875 214.378906 196.03125 216.851562 C 193.542969 221.390625 188.132812 222.941406 183.21875 222.152344 C 185.339844 223.023438 187.621094 223.144531 189.882812 223.050781 Z M 189.882812 223.050781 " fill-opacity="1" fill-rule="nonzero"/><path fill="#00f310" d="M 225.8125 177.679688 C 227.988281 175.902344 230.582031 174.796875 233.035156 173.585938 C 229.457031 173.035156 225.960938 174.398438 223.089844 176.441406 C 222.917969 176.558594 222.867188 176.675781 222.90625 176.898438 C 223.820312 182.476562 224.164062 188.167969 223.054688 193.757812 C 225.742188 189.15625 225.976562 183.488281 225.539062 178.289062 C 225.507812 178.011719 225.597656 177.847656 225.8125 177.679688 Z M 225.8125 177.679688 " fill-opacity="1" fill-rule="nonzero"/><path fill="#00f310" d="M 238.808594 198.230469 C 237.445312 200.527344 235.824219 202.609375 233.835938 204.390625 C 233.300781 204.867188 232.980469 205.402344 232.757812 206.082031 C 231.550781 209.847656 229.84375 213.363281 227.804688 216.753906 C 228.367188 216.78125 228.902344 216.789062 229.429688 216.84375 C 229.726562 216.875 229.90625 216.789062 230.089844 216.5625 C 234.527344 210.898438 237.625 204.304688 239.4375 197.34375 C 239.089844 197.628906 238.976562 197.949219 238.808594 198.230469 Z M 230.828125 211.871094 C 230.832031 211.867188 230.832031 211.863281 230.839844 211.859375 L 230.84375 211.882812 Z M 230.917969 211.699219 C 230.921875 211.664062 230.917969 211.625 230.914062 211.585938 C 230.925781 211.628906 230.925781 211.667969 230.917969 211.699219 Z M 235.40625 205.746094 C 234.0625 207.691406 232.777344 209.679688 231.226562 211.460938 C 231.160156 211.558594 231.074219 211.691406 230.917969 211.582031 C 231.96875 210.097656 232.699219 208.402344 233.457031 206.75 C 233.628906 206.34375 233.878906 205.976562 234.25 205.710938 C 234.949219 205.210938 235.652344 204.71875 236.429688 204.160156 C 236.054688 204.746094 235.75 205.257812 235.40625 205.746094 Z M 235.40625 205.746094 " fill-opacity="1" fill-rule="nonzero"/><path fill="#00f310" d="M 143.910156 210.644531 C 143.90625 210.644531 143.90625 210.644531 143.902344 210.640625 C 143.902344 210.644531 143.902344 210.652344 143.898438 210.660156 C 143.898438 210.660156 143.910156 210.644531 143.910156 210.644531 Z M 143.910156 210.644531 " fill-opacity="1" fill-rule="nonzero"/><path fill="#00f310" d="M 146.164062 214.367188 C 145.476562 213.242188 144.785156 212.117188 143.90625 211.136719 C 142.097656 209.121094 140.625 206.84375 139.234375 204.527344 C 139.164062 204.527344 139.140625 204.476562 139.121094 204.421875 C 139.121094 204.421875 139.117188 204.417969 139.117188 204.417969 C 139.246094 204.242188 140.285156 205.136719 140.492188 205.246094 C 140.917969 205.527344 141.238281 205.894531 141.460938 206.351562 C 142.25 207.792969 142.96875 209.300781 143.90625 210.640625 C 143.457031 208.972656 142.382812 207.441406 142.003906 205.730469 C 141.90625 205.273438 141.691406 204.960938 141.382812 204.664062 C 139.160156 202.632812 137.570312 200.003906 135.9375 197.542969 C 137.609375 204.183594 140.933594 210.417969 144.832031 216.050781 C 145.351562 216.820312 146.691406 216.527344 147.535156 216.976562 C 147.636719 217.015625 147.765625 217.105469 147.925781 216.96875 C 147.105469 216.253906 146.703125 215.261719 146.164062 214.367188 Z M 139.105469 204.304688 C 139.175781 204.351562 139.125 204.382812 139.105469 204.414062 C 139.070312 204.382812 139.035156 204.359375 139 204.332031 C 139.027344 204.308594 139.046875 204.265625 139.105469 204.304688 Z M 138.988281 204.222656 C 138.988281 204.246094 138.984375 204.273438 138.984375 204.296875 C 138.976562 204.269531 138.949219 204.238281 138.988281 204.222656 Z M 138.988281 204.222656 " fill-opacity="1" fill-rule="nonzero"/><path fill="#00f310" d="M 223.648438 220.894531 C 218.761719 223.832031 213.90625 227.027344 210.851562 231.972656 L 210.851562 231.976562 C 210.921875 231.992188 210.863281 232.113281 210.9375 232.03125 C 210.929688 232.027344 210.925781 232.023438 210.914062 232.019531 C 211.105469 232.121094 211.25 231.953125 211.390625 231.867188 C 213.566406 230.488281 215.722656 229.082031 217.8125 227.578125 C 221.125 225.089844 224.699219 222.691406 227.679688 219.898438 C 226.234375 219.835938 224.902344 220.125 223.648438 220.894531 Z M 223.648438 220.894531 " fill-opacity="1" fill-rule="nonzero"/><path fill="#00f310" d="M 162.386719 228.441406 C 159.664062 225.253906 155.851562 223.210938 152.355469 220.976562 C 151.085938 220.101562 149.535156 220.046875 148.050781 219.859375 C 147.988281 219.851562 147.898438 219.835938 147.894531 219.902344 C 154.050781 223.742188 159.925781 227.914062 165.460938 232.65625 C 164.601562 231.148438 163.40625 229.851562 162.386719 228.441406 Z M 162.386719 228.441406 " fill-opacity="1" fill-rule="nonzero"/><path fill="#00f310" d="M 161.363281 138.5625 C 162.851562 137.578125 163.523438 135.828125 164.53125 134.417969 C 164.375 134.332031 164.296875 134.46875 164.203125 134.539062 C 158.605469 138.710938 152.65625 142.6875 147.386719 147.171875 C 152.304688 144.71875 156.980469 141.871094 161.363281 138.5625 Z M 161.363281 138.5625 " fill-opacity="1" fill-rule="nonzero"/><path fill="#00f310" d="M 213.976562 138.4375 C 218.214844 141.511719 222.613281 144.355469 227.191406 146.898438 C 227.371094 147 227.550781 147.195312 227.796875 147.035156 C 222.480469 143.125 217.242188 139.0625 211.871094 135.207031 C 211.71875 135.097656 211.585938 134.90625 211.347656 134.984375 C 212.277344 136.09375 212.765625 137.578125 213.976562 138.4375 Z M 213.976562 138.4375 " fill-opacity="1" fill-rule="nonzero"/><path fill="#00f310" d="M 211.34375 134.984375 C 211.34375 134.988281 211.34375 134.984375 211.34375 134.984375 C 211.347656 134.984375 211.347656 134.984375 211.34375 134.984375 C 211.347656 134.984375 211.347656 134.984375 211.34375 134.984375 C 211.347656 134.976562 211.351562 134.957031 211.351562 134.957031 L 211.335938 134.96875 Z M 211.34375 134.984375 " fill-opacity="1" fill-rule="nonzero"/><path fill="#00f310" d="M 144.054688 210.796875 C 144.109375 210.808594 144.128906 210.730469 144.070312 210.707031 C 144.066406 210.710938 144.058594 210.714844 144.054688 210.714844 C 144.054688 210.714844 144.054688 210.71875 144.058594 210.71875 C 144.023438 210.746094 144.019531 210.777344 144.054688 210.796875 Z M 144.054688 210.796875 " fill-opacity="1" fill-rule="nonzero"/><path fill="#00f310" d="M 144.050781 210.714844 C 144.003906 210.695312 143.972656 210.636719 143.914062 210.652344 C 143.941406 210.71875 143.984375 210.75 144.050781 210.714844 Z M 144.050781 210.714844 " fill-opacity="1" fill-rule="nonzero"/><path fill="#00f310" d="M 143.910156 210.644531 C 143.910156 210.644531 143.898438 210.660156 143.898438 210.660156 C 143.902344 210.65625 143.910156 210.65625 143.914062 210.652344 C 143.914062 210.652344 143.914062 210.648438 143.910156 210.644531 Z M 143.910156 210.644531 " fill-opacity="1" fill-rule="nonzero"/><path fill="#00f310" d="M 164.542969 134.40625 C 164.542969 134.410156 164.519531 134.398438 164.519531 134.398438 L 164.535156 134.417969 C 164.535156 134.417969 164.535156 134.417969 164.539062 134.417969 C 164.535156 134.417969 164.542969 134.402344 164.542969 134.40625 Z M 164.542969 134.40625 " fill-opacity="1" fill-rule="nonzero"/><path fill="#00f310" d="M 227.785156 147.121094 C 227.769531 147.105469 227.761719 147.089844 227.765625 147.078125 C 227.753906 147.089844 227.75 147.101562 227.785156 147.121094 Z M 227.785156 147.121094 " fill-opacity="1" fill-rule="nonzero"/><path fill="#00f310" d="M 227.765625 147.078125 C 227.777344 147.0625 227.800781 147.050781 227.796875 147.039062 C 227.777344 147.050781 227.765625 147.0625 227.765625 147.078125 Z M 227.765625 147.078125 " fill-opacity="1" fill-rule="nonzero"/><path fill="#00f310" d="M 278.890625 165.519531 C 273.59375 173.003906 266.789062 179.308594 258.964844 184.078125 C 257.503906 184.992188 256.027344 185.878906 254.550781 186.765625 C 254.242188 186.949219 254.117188 187.175781 254.113281 187.53125 C 253.585938 198.558594 250.121094 209.417969 244.4375 218.863281 C 232.394531 237.707031 215.300781 253.074219 197.371094 266.140625 C 238.183594 243.359375 263.984375 209.214844 279.132812 165.335938 C 278.988281 165.367188 278.941406 165.449219 278.890625 165.519531 Z M 278.890625 165.519531 " fill-opacity="1" fill-rule="nonzero"/><path fill="#00f310" d="M 177.953125 266.304688 C 157.898438 252.023438 132.941406 229.421875 124.558594 205.890625 C 122.539062 200.039062 121.164062 193.902344 120.863281 187.710938 C 120.84375 187.347656 120.761719 187.085938 120.417969 186.894531 C 110.847656 181.582031 102.875 173.734375 96.488281 164.980469 C 110.421875 209.1875 137.871094 243.820312 178.296875 266.628906 C 178.261719 266.4375 178.082031 266.386719 177.953125 266.304688 Z M 177.953125 266.304688 " fill-opacity="1" fill-rule="nonzero"/><path fill="#00f310" d="M 178.300781 266.628906 C 178.300781 266.628906 178.304688 266.636719 178.304688 266.636719 C 178.304688 266.636719 178.308594 266.632812 178.308594 266.632812 C 178.308594 266.628906 178.304688 266.628906 178.300781 266.628906 Z M 178.300781 266.628906 " fill-opacity="1" fill-rule="nonzero"/><path fill="#00f310" d="M 178.738281 266.839844 C 178.742188 266.84375 178.75 266.851562 178.753906 266.851562 C 178.753906 266.851562 178.761719 266.847656 178.761719 266.847656 C 178.753906 266.847656 178.742188 266.84375 178.738281 266.839844 Z M 178.738281 266.839844 " fill-opacity="1" fill-rule="nonzero"/><path fill="#00f310" d="M 178.304688 266.636719 C 178.308594 266.636719 178.316406 266.636719 178.324219 266.636719 C 178.316406 266.636719 178.316406 266.632812 178.308594 266.628906 C 178.308594 266.628906 178.304688 266.636719 178.304688 266.636719 Z M 178.304688 266.636719 " fill-opacity="1" fill-rule="nonzero"/><path fill="#00f310" d="M 178.738281 266.839844 C 178.609375 266.75 178.480469 266.667969 178.320312 266.640625 C 178.445312 266.738281 178.589844 266.792969 178.738281 266.839844 Z M 178.738281 266.839844 " fill-opacity="1" fill-rule="nonzero"/><path fill="#00f310" d="M 258.789062 222.21875 C 258.773438 222.242188 258.757812 222.261719 258.742188 222.28125 C 258.761719 222.261719 258.78125 222.246094 258.800781 222.230469 C 258.800781 222.230469 258.800781 222.230469 258.796875 222.230469 L 258.800781 222.230469 C 258.910156 222.230469 259.089844 222.105469 258.996094 221.988281 C 258.882812 222.027344 258.816406 222.109375 258.789062 222.21875 Z M 258.789062 222.21875 " fill-opacity="1" fill-rule="nonzero"/><path fill="#00f310" d="M 259.058594 221.886719 C 259.035156 221.917969 259.015625 221.953125 258.992188 221.988281 C 259.007812 222 259.019531 222.015625 259.023438 222.039062 C 259.113281 222.050781 259.171875 222.003906 259.226562 221.941406 C 259.15625 221.976562 259.097656 221.957031 259.058594 221.886719 Z M 259.058594 221.886719 " fill-opacity="1" fill-rule="nonzero"/><path fill="#00f310" d="M 178.871094 266.960938 L 178.863281 266.96875 C 178.9375 267.003906 179.011719 267.039062 179.085938 267.074219 C 179.085938 267.074219 179.089844 267.074219 179.089844 267.074219 C 179.015625 267.035156 178.945312 267 178.871094 266.960938 Z M 178.871094 266.960938 " fill-opacity="1" fill-rule="nonzero"/><path fill="#00f310" d="M 179.25 267.195312 C 179.234375 267.1875 179.21875 267.1875 179.203125 267.1875 L 179.199219 267.1875 C 179.210938 267.246094 179.285156 267.238281 179.25 267.195312 Z M 179.25 267.195312 " fill-opacity="1" fill-rule="nonzero"/><path fill="#00f310" d="M 178.753906 266.851562 C 178.792969 266.890625 178.832031 266.929688 178.867188 266.96875 C 178.867188 266.96875 178.875 266.960938 178.875 266.960938 C 178.835938 266.921875 178.796875 266.886719 178.761719 266.847656 C 178.757812 266.847656 178.753906 266.851562 178.753906 266.851562 Z M 178.753906 266.851562 " fill-opacity="1" fill-rule="nonzero"/><path fill="#00f310" d="M 179.089844 267.074219 C 179.125 267.113281 179.164062 267.152344 179.199219 267.191406 C 179.199219 267.191406 179.203125 267.1875 179.203125 267.1875 C 179.167969 267.148438 179.128906 267.113281 179.089844 267.074219 Z M 179.089844 267.074219 " fill-opacity="1" fill-rule="nonzero"/><path fill="#00f310" d="M 160.777344 171.1875 C 160.640625 171.277344 160.503906 171.363281 160.316406 171.484375 C 160.550781 171.460938 160.695312 171.386719 160.832031 171.296875 C 160.816406 171.257812 160.796875 171.222656 160.777344 171.1875 Z M 160.777344 171.1875 " fill-opacity="1" fill-rule="nonzero"/><path fill="#00f310" d="M 159.273438 144.253906 C 159.242188 144.289062 159.207031 144.320312 159.171875 144.351562 C 159.171875 144.351562 159.171875 144.355469 159.171875 144.355469 C 159.207031 144.320312 159.242188 144.289062 159.273438 144.253906 Z M 159.273438 144.253906 " fill-opacity="1" fill-rule="nonzero"/><path fill="#00f310" d="M 214.8125 223.125 C 214.996094 223.054688 215.144531 222.9375 215.261719 222.777344 C 215.074219 222.800781 214.921875 222.898438 214.777344 223.003906 C 214.785156 223.046875 214.796875 223.082031 214.8125 223.125 Z M 214.8125 223.125 " fill-opacity="1" fill-rule="nonzero"/><path fill="#00f310" d="M 214.445312 202.417969 C 214.761719 202.261719 214.515625 202.109375 214.363281 202.339844 C 214.347656 202.410156 214.378906 202.429688 214.445312 202.417969 Z M 214.445312 202.417969 " fill-opacity="1" fill-rule="nonzero"/><path fill="#00f310" d="M 214.777344 202.089844 C 214.769531 202.097656 214.765625 202.109375 214.757812 202.121094 C 214.777344 202.105469 214.792969 202.09375 214.8125 202.082031 C 214.800781 202.082031 214.789062 202.085938 214.777344 202.089844 Z M 214.777344 202.089844 " fill-opacity="1" fill-rule="nonzero"/><path fill="#00f310" d="M 214.832031 202.058594 C 214.832031 202.058594 214.824219 202.074219 214.824219 202.074219 C 214.820312 202.078125 214.820312 202.082031 214.8125 202.082031 C 214.816406 202.082031 214.820312 202.082031 214.824219 202.078125 Z M 214.832031 202.058594 " fill-opacity="1" fill-rule="nonzero"/><path fill="#00f310" d="M 215.269531 222.777344 C 215.269531 222.773438 215.273438 222.769531 215.277344 222.765625 C 215.269531 222.769531 215.269531 222.769531 215.261719 222.769531 C 215.265625 222.773438 215.269531 222.777344 215.269531 222.777344 Z M 215.269531 222.777344 " fill-opacity="1" fill-rule="nonzero"/><path fill="#00f310" d="M 215.316406 222.726562 C 215.300781 222.738281 215.289062 222.753906 215.277344 222.765625 C 215.296875 222.757812 215.3125 222.746094 215.316406 222.726562 Z M 215.316406 222.726562 " fill-opacity="1" fill-rule="nonzero"/><path fill="#00f310" d="M 161.070312 223.023438 C 161.070312 222.984375 161.074219 222.941406 161.074219 222.898438 C 160.972656 222.820312 160.867188 222.753906 160.722656 222.769531 C 160.6875 222.675781 160.601562 222.695312 160.53125 222.679688 C 160.59375 222.710938 160.65625 222.746094 160.71875 222.777344 C 160.804688 222.90625 160.929688 222.972656 161.070312 223.023438 Z M 161.070312 223.023438 " fill-opacity="1" fill-rule="nonzero"/><path fill="#00f310" d="M 158.285156 202.414062 C 158.28125 202.410156 158.277344 202.40625 158.277344 202.40625 L 158.269531 202.414062 C 158.277344 202.414062 158.277344 202.414062 158.285156 202.414062 Z M 158.285156 202.414062 " fill-opacity="1" fill-rule="nonzero"/><path fill="#00f310" d="M 158.601562 202.542969 C 158.511719 202.449219 158.40625 202.417969 158.285156 202.410156 C 158.351562 202.46875 158.414062 202.527344 158.480469 202.589844 C 158.519531 202.578125 158.5625 202.558594 158.601562 202.542969 Z M 158.601562 202.542969 " fill-opacity="1" fill-rule="nonzero"/><path fill="#00f310" d="M 160.53125 222.679688 C 160.523438 222.675781 160.511719 222.667969 160.503906 222.667969 L 160.5 222.671875 C 160.511719 222.675781 160.519531 222.675781 160.53125 222.679688 Z M 160.53125 222.679688 " fill-opacity="1" fill-rule="nonzero"/><path fill="#00f310" d="M 158.167969 202.292969 C 158.203125 202.332031 158.238281 202.371094 158.273438 202.414062 C 158.273438 202.414062 158.277344 202.40625 158.277344 202.40625 C 158.238281 202.367188 158.203125 202.328125 158.167969 202.292969 L 158.152344 202.28125 C 158.152344 202.277344 158.167969 202.292969 158.167969 202.292969 Z M 158.167969 202.292969 " fill-opacity="1" fill-rule="nonzero"/><path fill="#00f310" d="M 160.5 222.667969 L 160.503906 222.664062 L 160.480469 222.640625 Z M 160.5 222.667969 " fill-opacity="1" fill-rule="nonzero"/><g clip-path="url(#7ec42c407b)"><path fill="#000000" d="M 286.207031 148.867188 C 278.375 159.945312 268.878906 169.894531 257.605469 177.519531 C 258.335938 169.988281 258.085938 162.59375 256.035156 155.316406 C 255.054688 158.332031 254.136719 161.359375 252.59375 164.203125 C 250.335938 157.480469 247.5 150.917969 243.453125 145.0625 C 243.273438 144.808594 243.273438 144.617188 243.421875 144.363281 C 249.410156 133.648438 255.996094 122.96875 261.839844 112.320312 C 252.816406 119.496094 244.066406 127.023438 235.179688 134.375 C 234.964844 134.558594 234.828125 134.617188 234.59375 134.378906 C 234.246094 134.023438 233.84375 133.71875 233.46875 133.390625 C 229.804688 130.148438 225.851562 127.308594 221.636719 124.824219 C 220.894531 124.386719 220.96875 124.554688 221.300781 123.785156 C 223.464844 118.65625 225.914062 113.507812 227.90625 108.378906 C 222.804688 112.195312 217.859375 116.296875 212.796875 120.1875 C 212.609375 120.335938 212.460938 120.488281 212.164062 120.359375 C 210.371094 119.589844 208.511719 119.019531 206.644531 118.488281 C 202.5 117.304688 198.285156 116.480469 193.996094 116.054688 C 193.644531 116.019531 193.496094 115.882812 193.390625 115.550781 C 191.367188 109.691406 189.660156 103.542969 187.503906 97.824219 C 185.660156 103.683594 183.722656 109.515625 181.878906 115.375 C 181.738281 115.820312 181.503906 115.980469 181.058594 116.023438 C 178.105469 116.328125 175.1875 116.84375 172.289062 117.492188 C 169.285156 118.164062 166.335938 119.039062 163.453125 120.121094 C 162.949219 120.308594 162.5 120.40625 162.132812 119.894531 C 157.050781 116.140625 152.210938 112 147.0625 108.375 C 149.304688 113.601562 151.625 118.792969 153.894531 124.007812 C 154.089844 124.457031 154.089844 124.457031 153.660156 124.730469 C 151.019531 126.347656 148.425781 128.042969 145.964844 129.925781 C 144.121094 131.332031 142.359375 132.835938 140.617188 134.367188 C 140.230469 134.710938 140.226562 134.605469 139.996094 134.367188 C 131.066406 127.035156 122.160156 119.394531 113.148438 112.289062 C 119.164062 122.996094 125.441406 133.585938 131.585938 144.230469 C 131.796875 144.59375 131.78125 144.839844 131.554688 145.171875 C 127.722656 151.082031 124.746094 157.4375 122.722656 164.195312 C 121.195312 161.222656 120.324219 158.34375 119.269531 155.195312 C 117.117188 162.460938 117.160156 170.027344 117.585938 177.46875 C 106.285156 169.601562 96.714844 160.042969 88.8125 148.683594 C 87.960938 168.296875 104.882812 206.179688 116.4375 222.3125 C 110.503906 217.65625 105.09375 212.050781 99.941406 206.460938 C 120.019531 239.351562 153.523438 261.652344 187.855469 277.175781 C 222.734375 260.382812 254.226562 239.976562 275.421875 206.675781 C 275.167969 206.617188 275.085938 206.847656 274.964844 206.980469 C 270.054688 212.371094 264.859375 217.695312 259.027344 222.039062 C 259.003906 222.167969 258.914062 222.214844 258.804688 222.230469 C 258.78125 222.25 258.765625 222.265625 258.746094 222.28125 C 258.824219 222.167969 258.851562 222.03125 258.996094 221.988281 C 271.324219 203.453125 286.085938 171.199219 286.207031 148.867188 Z M 116.433594 222.339844 C 116.433594 222.339844 116.4375 222.320312 116.4375 222.3125 C 116.441406 222.320312 116.445312 222.320312 116.449219 222.328125 Z M 168.6875 260.734375 C 133.558594 238.648438 108.789062 204.414062 96.492188 164.980469 C 102.878906 173.734375 110.847656 181.578125 120.421875 186.894531 C 120.765625 187.085938 120.847656 187.347656 120.863281 187.710938 C 121.164062 193.902344 122.542969 200.039062 124.5625 205.890625 C 133.160156 229.871094 158.023438 251.953125 178.300781 266.625 C 175.058594 264.71875 171.8125 262.824219 168.6875 260.734375 Z M 178.320312 266.640625 C 178.480469 266.667969 178.609375 266.75 178.734375 266.839844 C 178.589844 266.792969 178.445312 266.738281 178.320312 266.640625 Z M 191.292969 245.394531 C 145.617188 248.277344 113.371094 201.625 130.53125 159.613281 C 145.757812 121.757812 194.714844 109.277344 226.261719 135.160156 C 270.011719 170.285156 247.480469 241.992188 191.292969 245.394531 Z M 277.9375 168.582031 C 262.933594 210.84375 236.710938 244.253906 197.371094 266.144531 C 215.300781 253.074219 232.398438 237.707031 244.4375 218.867188 C 250.121094 209.417969 253.585938 198.5625 254.113281 187.53125 C 254.117188 187.175781 254.242188 186.953125 254.550781 186.769531 C 256.027344 185.882812 257.503906 184.996094 258.964844 184.082031 C 266.949219 179.320312 273.628906 172.730469 279.136719 165.339844 C 278.679688 166.417969 278.328125 167.507812 277.9375 168.582031 Z M 277.9375 168.582031 " fill-opacity="1" fill-rule="nonzero"/></g><path fill="#000000" d="M 260.769531 142.484375 C 259.863281 141.632812 258.8125 140.964844 257.839844 140.191406 C 257.738281 140.109375 257.65625 139.949219 257.457031 140.019531 C 257.828125 145.648438 259.507812 143.496094 254.886719 147 C 254.796875 147.070312 254.640625 147.101562 254.671875 147.292969 C 260.34375 148.816406 258.335938 147.128906 260.136719 152.824219 C 263.382812 147.757812 260.847656 148.835938 266.945312 148.726562 C 266.113281 147.609375 265.144531 146.523438 264.152344 145.519531 C 263.945312 145.324219 263.863281 145.132812 263.957031 144.835938 C 264.402344 143.363281 264.683594 141.953125 265.050781 140.421875 C 263.832031 141.113281 262.65625 141.820312 261.449219 142.527344 C 261.1875 142.679688 261.007812 142.707031 260.769531 142.484375 Z M 260.769531 142.484375 " fill-opacity="1" fill-rule="nonzero"/><path fill="#000000" d="M 108.167969 148.527344 C 113.835938 148.734375 111.789062 147.214844 114.628906 152.011719 C 114.722656 152.175781 114.773438 152.386719 115.007812 152.464844 C 115.300781 151.070312 115.714844 149.75 116.066406 148.410156 C 116.148438 148.105469 116.300781 147.941406 116.609375 147.871094 C 117.789062 147.625 118.964844 147.363281 120.136719 147.097656 C 120.261719 147.070312 120.433594 147.132812 120.515625 146.957031 C 115.914062 143.125 117.007812 145.796875 117.496094 139.671875 C 117.339844 139.667969 117.269531 139.757812 117.179688 139.828125 C 116.246094 140.585938 115.300781 141.335938 114.371094 142.097656 C 113.800781 142.566406 113.898438 142.472656 113.378906 142.171875 C 112.273438 141.539062 111.164062 140.90625 109.992188 140.234375 C 111.117188 146.375 112.503906 143.484375 108.167969 148.527344 Z M 108.167969 148.527344 " fill-opacity="1" fill-rule="nonzero"/><path fill="#000000" d="M 112.730469 158.589844 C 113.144531 158.210938 113.585938 157.851562 113.953125 157.359375 C 111.351562 157.304688 112.144531 157.8125 111.015625 155.429688 C 109.679688 158.191406 111.15625 157.144531 108.179688 157.5625 C 110.460938 159.582031 109.609375 158.523438 109.246094 161.210938 C 111.613281 159.632812 110.582031 159.742188 112.949219 161.070312 C 113.074219 160.820312 112.613281 159.648438 112.523438 159.304688 C 112.40625 158.980469 112.5 158.804688 112.730469 158.589844 Z M 112.730469 158.589844 " fill-opacity="1" fill-rule="nonzero"/><path fill="#000000" d="M 265.871094 157.773438 C 265.554688 157.789062 265.417969 157.664062 265.324219 157.367188 C 265.175781 156.890625 264.984375 156.425781 264.902344 155.929688 C 264.882812 155.828125 264.878906 155.707031 264.707031 155.695312 C 263.449219 158.101562 264.300781 157.484375 261.675781 157.464844 C 262.277344 158.511719 263.65625 158.75 262.8125 160.136719 C 262.636719 160.433594 262.507812 160.789062 262.515625 161.230469 C 264.949219 159.871094 263.902344 159.988281 266.238281 161.457031 C 265.894531 159.140625 265.183594 159.8125 267.203125 158.203125 C 267.289062 158.128906 267.460938 158.109375 267.414062 157.925781 C 266.902344 157.8125 266.386719 157.753906 265.871094 157.773438 Z M 265.871094 157.773438 " fill-opacity="1" fill-rule="nonzero"/><path fill="#000000" d="M 168.371094 111.320312 C 168.816406 111.460938 168.824219 111.445312 168.699219 111.875 C 168.609375 112.1875 168.414062 112.46875 168.421875 112.851562 C 170.648438 111.570312 169.472656 111.761719 171.601562 112.785156 C 171.414062 110.613281 171.382812 111.277344 173.457031 110.3125 C 173.386719 110.0625 172.160156 109.914062 171.859375 109.816406 C 171.5625 109.765625 171.507812 109.613281 171.546875 109.347656 C 171.609375 108.953125 171.660156 108.558594 171.632812 108.023438 C 169.707031 109.75 170.507812 109.429688 168.167969 108.558594 C 169.550781 110.804688 168.414062 109.753906 167.582031 111.328125 C 167.867188 111.367188 168.109375 111.234375 168.371094 111.320312 Z M 168.371094 111.320312 " fill-opacity="1" fill-rule="nonzero"/><path fill="#000000" d="M 202.136719 110.679688 C 203.921875 111.308594 204.132812 111.023438 203.90625 113.078125 C 204.242188 112.972656 204.441406 112.796875 204.617188 112.625 C 205.496094 111.71875 206.226562 112.738281 207.179688 113.03125 C 206.394531 111.003906 206.441406 111.785156 207.871094 111.507812 C 206.429688 109.910156 206.167969 110.824219 207.171875 109.003906 C 205.738281 109.179688 205.601562 110.222656 204.328125 108.921875 C 204.136719 108.761719 203.988281 108.542969 203.707031 108.453125 C 203.644531 108.878906 203.761719 109.253906 203.796875 109.632812 C 203.835938 110.050781 203.84375 110.058594 203.449219 110.140625 C 203.023438 110.28125 202.21875 110.242188 201.917969 110.519531 C 201.957031 110.632812 202.046875 110.652344 202.136719 110.679688 Z M 202.136719 110.679688 " fill-opacity="1" fill-rule="nonzero"/><path fill="#000000" d="M 275.414062 206.648438 C 275.410156 206.65625 275.414062 206.667969 275.421875 206.671875 C 275.421875 206.675781 275.417969 206.675781 275.417969 206.675781 C 275.421875 206.675781 275.425781 206.679688 275.429688 206.679688 C 275.425781 206.667969 275.421875 206.660156 275.414062 206.648438 Z M 275.414062 206.648438 " fill-opacity="1" fill-rule="nonzero"/><path fill="#000000" d="M 275.382812 206.585938 C 275.390625 206.605469 275.402344 206.628906 275.414062 206.648438 C 275.421875 206.621094 275.453125 206.582031 275.382812 206.585938 Z M 275.382812 206.585938 " fill-opacity="1" fill-rule="nonzero"/><path fill="#000000" d="M 231.664062 222.054688 C 259.085938 190.296875 245.128906 139.234375 204.421875 127.378906 C 155.574219 112.699219 113.621094 162.910156 134.921875 208.726562 C 152.378906 246.648438 204.582031 253.742188 231.664062 222.054688 Z M 239.140625 198.4375 C 237.300781 204.988281 234.285156 211.203125 230.089844 216.558594 C 229.90625 216.789062 229.726562 216.875 229.429688 216.84375 C 228.902344 216.785156 228.367188 216.78125 227.804688 216.75 C 229.84375 213.363281 231.550781 209.84375 232.757812 206.078125 C 232.980469 205.402344 233.304688 204.867188 233.835938 204.386719 C 236.1875 202.394531 237.722656 199.847656 239.4375 197.339844 C 239.320312 197.773438 239.230469 198.105469 239.140625 198.4375 Z M 225.539062 178.285156 C 225.976562 183.484375 225.742188 189.148438 223.054688 193.753906 C 224.164062 188.164062 223.820312 182.472656 222.90625 176.894531 C 222.871094 176.671875 222.917969 176.558594 223.089844 176.4375 C 225.960938 174.394531 229.460938 173.035156 233.035156 173.582031 C 230.582031 174.796875 227.988281 175.898438 225.8125 177.679688 C 225.597656 177.847656 225.507812 178.011719 225.539062 178.285156 Z M 229.78125 151.320312 C 230.339844 151.023438 230.339844 151.039062 230.730469 151.554688 C 236.097656 158.617188 239.589844 167.082031 240.683594 175.886719 C 239.152344 173.105469 237.578125 170.1875 235.113281 168.054688 C 234.878906 167.851562 234.734375 167.613281 234.6875 167.300781 C 233.84375 162.09375 231.714844 157.21875 229.410156 152.511719 C 228.953125 151.5625 228.820312 151.839844 229.78125 151.320312 Z M 232.289062 163.808594 C 232.546875 164.773438 232.757812 165.75 232.917969 166.738281 C 232.960938 167.027344 232.890625 167.199219 232.65625 167.339844 C 228.871094 169.566406 225.027344 171.6875 221.214844 173.871094 C 220.832031 174.03125 220.5625 174.414062 220.269531 173.917969 C 216.078125 169.507812 210.953125 166.0625 205.664062 163.105469 C 205.089844 162.804688 204.78125 162.390625 204.683594 161.738281 C 203.941406 156.03125 202.015625 150.570312 199.402344 145.472656 C 203.15625 143.082031 207.207031 140.984375 211.605469 140.125 C 211.84375 140.070312 211.996094 140.179688 212.164062 140.289062 C 217.125 143.519531 221.90625 147.050781 226.246094 151.089844 C 229.492188 154.550781 230.914062 159.359375 232.289062 163.808594 Z M 176.621094 219.175781 C 176.644531 219.242188 176.632812 219.320312 176.640625 219.421875 C 174.757812 215.898438 174.039062 211.851562 173.210938 207.964844 C 173.140625 207.636719 173.222656 207.4375 173.523438 207.246094 C 177.769531 204.539062 182.015625 201.824219 186.300781 199.167969 C 186.585938 198.988281 186.769531 199.015625 187.015625 199.21875 C 187.507812 199.636719 188.058594 199.976562 188.65625 200.339844 C 181.890625 203.46875 174.914062 211.242188 176.621094 219.175781 Z M 143.914062 210.652344 C 143.972656 210.640625 144.003906 210.695312 144.050781 210.714844 C 143.984375 210.75 143.941406 210.71875 143.914062 210.652344 Z M 143.632812 205.621094 C 142.632812 203.320312 151.058594 197.941406 152.988281 196.980469 C 153.253906 196.894531 153.335938 196.59375 153.601562 196.84375 C 156.796875 199.898438 160.226562 202.671875 163.839844 205.214844 C 165.210938 206.179688 166.617188 207.09375 168.070312 207.925781 C 168.355469 208.085938 168.445312 208.304688 168.496094 208.585938 C 169.46875 214.296875 171.382812 219.65625 174.046875 224.828125 C 171.484375 225.515625 169.003906 226.105469 166.398438 226.398438 C 165.757812 226.492188 165.199219 226.375 164.65625 226.027344 C 163.625 225.367188 162.589844 224.726562 161.546875 224.082031 C 157.519531 221.621094 153.683594 218.84375 149.59375 216.492188 C 149.175781 216.234375 148.851562 215.792969 148.554688 215.363281 C 146.519531 212.339844 144.855469 209.0625 143.632812 205.621094 Z M 174.996094 163.085938 C 174.125 162.433594 173.34375 161.882812 172.535156 161.367188 C 172.320312 161.226562 172.003906 161.164062 171.917969 160.921875 C 173.109375 156.292969 174.738281 151.675781 176.574219 147.230469 C 176.730469 146.863281 176.953125 146.628906 177.347656 146.507812 C 182.082031 145.082031 187.28125 144.382812 192.0625 145.984375 C 188.9375 146.035156 185.75 146.652344 183.085938 148.433594 C 178.460938 151.382812 174.902344 157.574219 174.996094 163.085938 Z M 178.402344 170.542969 C 180.539062 171.980469 182.667969 173.433594 184.8125 174.863281 C 185.070312 175.035156 185.136719 175.222656 185.136719 175.503906 C 185.128906 178.765625 185.132812 182.03125 185.132812 185.300781 C 185.136719 185.300781 185.140625 185.300781 185.144531 185.300781 C 185.144531 188.582031 185.140625 191.863281 185.148438 195.148438 C 185.148438 195.4375 185.066406 195.617188 184.800781 195.769531 C 179.492188 199.015625 174.289062 202.445312 169.085938 205.859375 C 168.757812 206.089844 168.496094 206.117188 168.128906 205.894531 C 163.261719 203.011719 158.675781 199.6875 154.34375 196.050781 C 154.039062 195.800781 153.878906 195.484375 153.789062 195.117188 C 152.234375 189.042969 151.804688 182.6875 152.695312 176.476562 C 152.828125 174.992188 156.941406 172.140625 158.195312 171.066406 C 161.523438 168.601562 164.914062 166.144531 168.695312 164.417969 C 168.984375 164.296875 169.207031 164.332031 169.464844 164.511719 C 172.410156 166.566406 175.421875 168.535156 178.402344 170.542969 Z M 190.777344 221.429688 C 195.4375 219.738281 198.449219 213.613281 198.785156 208.890625 C 199.421875 209.441406 199.988281 209.933594 200.554688 210.421875 C 200.707031 210.554688 200.660156 210.714844 200.636719 210.882812 C 200.054688 214.492188 198.699219 217.90625 197.210938 221.230469 C 197.015625 221.65625 196.75 221.886719 196.285156 221.984375 C 192.023438 222.929688 187.417969 223.824219 183.21875 222.152344 C 185.84375 222.535156 188.347656 222.335938 190.777344 221.429688 Z M 194.273438 200.246094 C 191.933594 198.777344 189.613281 197.28125 187.273438 195.816406 C 186.941406 195.609375 186.847656 195.375 186.847656 195.003906 C 186.859375 191.777344 186.855469 188.546875 186.855469 185.320312 C 186.835938 185.320312 186.816406 185.320312 186.796875 185.320312 C 186.796875 182.058594 186.804688 178.792969 186.785156 175.53125 C 186.78125 175.175781 186.953125 175.039062 187.199219 174.890625 C 192.367188 171.765625 197.511719 168.601562 202.664062 165.449219 C 203.152344 165.148438 203.640625 164.839844 204.117188 164.527344 C 204.40625 164.339844 204.65625 164.320312 204.984375 164.492188 C 209.789062 166.996094 214.125 170.320312 218.027344 174.070312 C 218.546875 174.640625 219.40625 175.027344 219.5 175.875 C 220.476562 182.246094 219.996094 188.757812 218.695312 195.046875 C 218.628906 195.382812 218.480469 195.65625 218.199219 195.878906 C 213.691406 199.46875 209 202.8125 203.996094 205.675781 C 203.625 205.90625 203.34375 205.917969 202.949219 205.667969 C 200.066406 203.839844 197.160156 202.054688 194.273438 200.246094 Z M 227.785156 147.121094 C 227.75 147.101562 227.753906 147.089844 227.765625 147.078125 C 227.761719 147.089844 227.769531 147.105469 227.785156 147.121094 Z M 227.796875 147.039062 Z M 211.871094 135.207031 C 217.242188 139.0625 222.480469 143.125 227.796875 147.035156 C 227.550781 147.195312 227.371094 147 227.191406 146.898438 C 222.613281 144.355469 218.214844 141.511719 213.976562 138.4375 C 212.765625 137.578125 212.277344 136.097656 211.347656 134.984375 C 211.585938 134.90625 211.71875 135.097656 211.871094 135.207031 Z M 211.351562 134.957031 L 211.34375 134.984375 C 211.339844 134.976562 211.335938 134.976562 211.332031 134.96875 Z M 165.507812 138.242188 C 166.597656 136.605469 167.691406 134.976562 168.832031 133.375 C 169.230469 132.820312 169.722656 132.457031 170.359375 132.238281 C 181.292969 128.347656 193.511719 128.523438 204.472656 132.230469 C 205.175781 132.46875 205.75 132.847656 206.226562 133.433594 C 207.578125 135.089844 208.835938 136.804688 209.992188 138.597656 C 210.226562 138.953125 210.226562 138.960938 209.800781 139.097656 C 206.71875 140.101562 203.75 141.386719 200.820312 142.769531 C 200.097656 143.109375 199.351562 143.414062 198.640625 143.785156 C 198.292969 143.964844 197.960938 143.980469 197.574219 143.875 C 193.382812 142.828125 189.046875 142.324219 184.730469 142.519531 C 181.386719 142.675781 178.089844 143.132812 174.898438 144.195312 C 174.53125 144.316406 174.226562 144.332031 173.878906 144.066406 C 172.90625 143.332031 171.824219 142.769531 170.765625 142.167969 C 169.042969 141.1875 167.300781 140.234375 165.503906 139.390625 C 165.296875 139.292969 165.019531 139.304688 164.894531 139.007812 C 165.183594 138.824219 165.328125 138.515625 165.507812 138.242188 Z M 164.542969 134.40625 C 164.539062 134.410156 164.539062 134.414062 164.535156 134.417969 L 164.519531 134.398438 Z M 147.617188 146.867188 C 153.164062 142.652344 158.796875 138.222656 164.535156 134.417969 C 163.523438 135.828125 162.851562 137.578125 161.363281 138.5625 C 156.980469 141.871094 152.300781 144.71875 147.386719 147.171875 C 147.382812 146.972656 147.527344 146.9375 147.617188 146.867188 Z M 149.457031 150.300781 C 153.84375 146.527344 158.617188 143.25 163.386719 139.984375 C 163.734375 139.75 164.007812 139.726562 164.394531 139.925781 C 167.492188 141.5 170.320312 143.492188 173.09375 145.574219 C 173.445312 145.832031 173.46875 145.867188 173.292969 146.3125 C 172.746094 147.710938 172.175781 149.09375 171.640625 150.496094 C 170.207031 154.25 169.1875 158.144531 168.335938 162.066406 C 168.25 162.492188 168.039062 162.765625 167.675781 162.964844 C 162.367188 165.839844 157.414062 169.304688 153.175781 173.628906 C 151.65625 175.296875 152.488281 174.847656 149.769531 173.214844 C 147.300781 171.574219 144.890625 169.847656 142.476562 168.125 C 142.304688 168 142.070312 167.90625 142.089844 167.617188 C 142.925781 162.484375 145.574219 153.828125 149.457031 150.300781 Z M 134.472656 175.628906 C 135.628906 166.726562 139.324219 158.421875 144.585938 151.210938 C 144.746094 150.964844 144.90625 150.898438 145.171875 151 C 145.726562 151.210938 146.296875 151.367188 146.871094 151.675781 C 144.15625 156.636719 141.507812 161.726562 140.65625 167.375 C 140.605469 167.742188 140.453125 168.019531 140.15625 168.253906 C 137.730469 170.277344 135.832031 172.78125 134.472656 175.628906 Z M 135.449219 183.027344 C 135.4375 183.070312 135.429688 183.097656 135.371094 183.085938 C 135.460938 180.871094 135.917969 175.339844 137.148438 173.6875 C 137.753906 172.984375 139.984375 169.640625 140.9375 170.363281 C 144.097656 172.398438 147.191406 174.546875 150.375 176.546875 C 150.667969 176.738281 150.75 176.933594 150.710938 177.269531 C 150.046875 182.4375 150.105469 187.695312 150.894531 192.839844 C 150.972656 193.417969 150.976562 193.414062 150.476562 193.710938 C 147.355469 195.507812 144.574219 197.710938 141.898438 200.105469 C 142.804688 196.574219 144.757812 193.246094 147.742188 191.113281 C 147.9375 190.980469 148.003906 190.851562 147.992188 190.617188 C 147.78125 186.78125 147.664062 182.945312 147.609375 179.109375 C 147.605469 178.71875 147.507812 178.472656 147.148438 178.269531 C 144.621094 176.847656 142.683594 174.746094 140.828125 172.558594 C 140.59375 172.292969 140.582031 172.28125 140.320312 172.546875 C 137.65625 175.421875 136.566406 179.355469 135.449219 183.027344 Z M 147.535156 216.976562 C 146.691406 216.53125 145.34375 216.816406 144.828125 216.050781 C 140.929688 210.417969 137.605469 204.183594 135.9375 197.542969 C 137.566406 200.003906 139.15625 202.632812 141.378906 204.664062 C 141.6875 204.960938 141.902344 205.273438 142.003906 205.730469 C 142.378906 207.445312 143.457031 208.972656 143.902344 210.640625 C 142.96875 209.300781 142.242188 207.792969 141.457031 206.351562 C 141.023438 205.460938 140.117188 204.945312 139.300781 204.445312 C 139.242188 204.402344 139.183594 204.3125 139.113281 204.414062 C 139.113281 204.414062 139.113281 204.414062 139.109375 204.414062 C 139.105469 204.417969 139.105469 204.425781 139.105469 204.429688 C 139.105469 204.429688 139.113281 204.421875 139.117188 204.417969 C 139.140625 204.472656 139.164062 204.523438 139.234375 204.527344 C 140.621094 206.839844 142.097656 209.117188 143.902344 211.132812 C 144.785156 212.113281 145.476562 213.242188 146.160156 214.367188 C 146.703125 215.261719 147.105469 216.25 147.921875 216.964844 C 147.761719 217.105469 147.632812 217.011719 147.535156 216.976562 Z M 147.894531 219.902344 C 147.898438 219.835938 147.984375 219.851562 148.050781 219.859375 C 149.535156 220.046875 151.085938 220.101562 152.355469 220.976562 C 155.851562 223.210938 159.667969 225.253906 162.386719 228.441406 C 163.40625 229.851562 164.601562 231.148438 165.460938 232.65625 C 159.925781 227.914062 154.050781 223.738281 147.894531 219.902344 Z M 205.347656 233.871094 C 204.871094 234.445312 204.277344 234.820312 203.570312 235.054688 C 193.246094 238.363281 181.941406 238.230469 171.601562 235.0625 C 170.882812 234.839844 170.320312 234.464844 169.828125 233.890625 C 168.226562 231.882812 166.425781 229.820312 165.261719 227.585938 C 168.828125 227.425781 172.261719 226.554688 175.71875 225.792969 C 180.808594 225.753906 185.925781 226.449219 191.042969 226.058594 C 192.988281 225.964844 194.925781 225.808594 196.871094 225.660156 C 197.394531 225.621094 197.898438 225.679688 198.40625 225.8125 C 202.039062 226.796875 205.730469 227.414062 209.472656 227.769531 C 208.253906 229.949219 206.914062 231.988281 205.347656 233.871094 Z M 209.855469 226.890625 C 208.636719 226.863281 198.667969 225.5 199.378906 224.117188 C 201.945312 219.035156 203.476562 213.554688 204.492188 207.976562 C 204.554688 207.636719 204.710938 207.421875 205.023438 207.257812 C 207.292969 206.066406 209.390625 204.597656 211.46875 203.113281 C 214.265625 201.136719 216.882812 198.9375 219.480469 196.714844 C 219.652344 196.554688 219.78125 196.570312 219.96875 196.675781 C 223.792969 198.828125 227.542969 201.175781 230.703125 204.253906 C 232.191406 204.882812 228.007812 213.394531 227.320312 214.640625 C 226.792969 215.609375 226.097656 216.371094 225.125 216.925781 C 222.917969 218.1875 220.84375 219.65625 218.738281 221.074219 C 215.976562 222.910156 213.277344 224.839844 210.53125 226.6875 C 210.304688 226.832031 210.085938 226.953125 209.855469 226.890625 Z M 211.390625 231.863281 C 211.25 231.953125 211.105469 232.121094 210.914062 232.015625 C 210.925781 232.019531 210.929688 232.023438 210.9375 232.03125 C 210.863281 232.113281 210.921875 231.988281 210.851562 231.972656 C 210.851562 231.972656 210.851562 231.972656 210.851562 231.96875 C 212.609375 229.457031 214.488281 227.046875 217.03125 225.28125 C 220.269531 223.257812 223.679688 219.75 227.683594 219.886719 C 222.703125 224.308594 217.035156 228.238281 211.390625 231.863281 Z M 211.390625 231.863281 " fill-opacity="1" fill-rule="nonzero"/><path fill="#000000" d="M 210.851562 231.972656 C 210.871094 231.992188 210.894531 232.003906 210.914062 232.015625 C 210.894531 232.003906 210.875 231.988281 210.851562 231.972656 Z M 210.851562 231.972656 " fill-opacity="1" fill-rule="nonzero"/><path fill="#000000" d="M 194.800781 198.042969 C 192.746094 196.472656 190.59375 194.546875 189.90625 191.972656 C 189.210938 188.855469 188.960938 185.777344 188.359375 182.59375 C 188.261719 186.394531 188.339844 190.179688 188.292969 193.980469 C 188.289062 194.351562 188.417969 194.617188 188.707031 194.832031 C 189.648438 195.480469 190.492188 196.273438 191.445312 196.886719 C 192.773438 197.453125 193.96875 198.332031 195.429688 198.539062 C 195.21875 198.347656 195.027344 198.207031 194.800781 198.042969 Z M 194.800781 198.042969 " fill-opacity="1" fill-rule="nonzero"/><path fill="#000000" d="M 204.117188 204.0625 C 207.527344 202.109375 210.777344 199.894531 214.070312 197.75 C 213.917969 197.660156 213.800781 197.777344 213.675781 197.828125 C 210.71875 199.203125 207.839844 200.773438 204.777344 201.898438 C 202.449219 202.679688 199.105469 201.054688 197.128906 199.816406 C 197.132812 199.816406 197.117188 199.839844 197.117188 199.839844 L 197.144531 199.828125 C 198.425781 201.742188 200.636719 203.027344 202.675781 204.101562 C 203.164062 204.332031 203.628906 204.363281 204.117188 204.0625 Z M 204.117188 204.0625 " fill-opacity="1" fill-rule="nonzero"/><path fill="#000000" d="M 198.929688 169.53125 C 201.433594 169.257812 204.492188 167.921875 206.863281 169.09375 C 209.253906 170.3125 211.632812 171.554688 214.007812 172.808594 C 214.203125 172.910156 214.394531 173.109375 214.660156 172.984375 C 214.660156 172.984375 214.664062 172.980469 214.667969 172.980469 L 214.660156 172.984375 C 211.886719 170.90625 209.007812 168.980469 206.207031 166.945312 C 205.746094 166.578125 205.324219 166.535156 204.777344 166.730469 C 202.65625 167.464844 200.667969 168.476562 198.675781 169.488281 C 198.78125 169.546875 198.855469 169.542969 198.929688 169.53125 Z M 198.929688 169.53125 " fill-opacity="1" fill-rule="nonzero"/><path fill="#000000" d="M 214.066406 197.75 C 214.066406 197.75 214.074219 197.753906 214.082031 197.757812 L 214.066406 197.75 C 214.070312 197.75 214.070312 197.75 214.066406 197.75 C 214.070312 197.753906 214.078125 197.757812 214.082031 197.757812 C 214.078125 197.753906 214.070312 197.75 214.066406 197.75 Z M 214.066406 197.75 " fill-opacity="1" fill-rule="nonzero"/><path fill="#000000" d="M 214.121094 197.648438 C 214.066406 197.625 214.007812 197.714844 214.070312 197.75 C 214.085938 197.714844 214.15625 197.710938 214.121094 197.648438 Z M 214.121094 197.648438 " fill-opacity="1" fill-rule="nonzero"/><path fill="#000000" d="M 214.625 173.082031 C 214.679688 173.09375 214.648438 173.011719 214.660156 172.984375 C 214.617188 173.007812 214.585938 173.035156 214.625 173.082031 Z M 214.625 173.082031 " fill-opacity="1" fill-rule="nonzero"/><path fill="#000000" d="M 170.128906 202.121094 C 167.878906 202.851562 165.953125 201.210938 163.945312 200.488281 C 162.410156 199.8125 160.867188 199.164062 159.382812 198.378906 C 159.382812 198.378906 159.382812 198.378906 159.378906 198.378906 C 159.378906 198.378906 159.375 198.390625 159.375 198.390625 L 159.394531 198.386719 C 162.238281 200.546875 165.253906 202.546875 168.328125 204.386719 C 169.488281 205.207031 173.558594 201.496094 174.683594 200.726562 C 177.328125 198.390625 180.558594 196.9375 183.523438 195.085938 C 183.875 194.882812 184.003906 194.644531 184.003906 194.246094 C 183.925781 190.894531 184.101562 187.507812 183.71875 184.191406 C 183.414062 186.519531 183.121094 188.738281 182.644531 191.027344 C 181.667969 195.808594 174.472656 200.476562 170.128906 202.121094 Z M 170.128906 202.121094 " fill-opacity="1" fill-rule="nonzero"/><path fill="#000000" d="M 167.582031 166.601562 C 165.386719 168.082031 163.125 169.46875 161.003906 171.058594 C 160.925781 171.101562 160.855469 171.144531 160.777344 171.183594 C 160.796875 171.21875 160.8125 171.257812 160.832031 171.292969 C 160.917969 171.246094 161.03125 171.25 161.074219 171.140625 C 168.234375 168.035156 166.300781 167.0625 174.328125 169.21875 C 173.074219 168.386719 171.707031 167.808594 170.332031 167.21875 C 169.492188 166.964844 168.433594 166.023438 167.582031 166.601562 Z M 167.582031 166.601562 " fill-opacity="1" fill-rule="nonzero"/><path fill="#000000" d="M 218.753906 146.351562 C 218.40625 146.117188 218.078125 145.855469 217.5625 145.644531 C 222.765625 149.839844 227.117188 155.054688 228.316406 161.808594 C 228.855469 164.054688 228.074219 166.15625 227.070312 168.117188 C 227.789062 168 231.8125 165.953125 231.335938 165.078125 C 230.082031 160.355469 228.230469 155.582031 225.105469 151.773438 C 223.183594 149.734375 221.089844 147.902344 218.753906 146.351562 Z M 218.753906 146.351562 " fill-opacity="1" fill-rule="nonzero"/><path fill="#000000" d="M 215.835938 167.558594 C 213.695312 165.90625 211.636719 164.148438 209.527344 162.453125 C 207.902344 161.144531 207.890625 161.164062 207.058594 159.28125 C 206.15625 157.25 205.207031 155.25 204.234375 153.109375 C 204.523438 154.933594 205.089844 156.476562 205.390625 158.261719 C 205.589844 159.203125 205.765625 160.148438 205.921875 161.101562 C 206.03125 161.742188 206.296875 162.242188 206.898438 162.558594 C 209.960938 164.390625 213.035156 166.207031 216.148438 167.941406 C 216.070312 167.730469 215.949219 167.644531 215.835938 167.558594 Z M 215.835938 167.558594 " fill-opacity="1" fill-rule="nonzero"/><path fill="#000000" d="M 227.042969 168.183594 C 227.066406 168.195312 227.082031 168.15625 227.066406 168.125 C 227.027344 168.132812 226.957031 168.132812 227.042969 168.183594 Z M 227.042969 168.183594 " fill-opacity="1" fill-rule="nonzero"/><path fill="#000000" d="M 227.066406 168.125 C 227.066406 168.125 227.066406 168.125 227.070312 168.125 C 227.070312 168.125 227.070312 168.121094 227.074219 168.121094 C 227.066406 168.117188 227.066406 168.117188 227.058594 168.113281 C 227.058594 168.117188 227.0625 168.121094 227.066406 168.125 Z M 227.066406 168.125 " fill-opacity="1" fill-rule="nonzero"/><path fill="#000000" d="M 144.0625 166.875 C 145.128906 167.71875 146.296875 168.398438 147.554688 168.90625 C 147.660156 168.945312 147.769531 169.078125 147.90625 168.9375 C 146.617188 166.132812 146.503906 163.558594 147.378906 160.613281 C 148.84375 153.757812 153.875 148.722656 159.007812 144.398438 C 150.875 149.136719 147.128906 154.5 144.332031 163.386719 C 144.105469 164.125 143.878906 164.867188 143.667969 165.617188 C 143.457031 166.382812 143.4375 166.378906 144.0625 166.875 Z M 144.0625 166.875 " fill-opacity="1" fill-rule="nonzero"/><path fill="#000000" d="M 157.679688 166.609375 C 160.601562 165.027344 163.433594 163.355469 166.398438 161.859375 C 166.703125 161.703125 166.875 161.472656 166.964844 161.148438 C 167.734375 158.09375 168.636719 155.042969 169.484375 152.019531 C 163.625 163.527344 167.207031 158.496094 157.679688 166.609375 Z M 157.679688 166.609375 " fill-opacity="1" fill-rule="nonzero"/><path fill="#000000" d="M 159.171875 144.351562 C 159.121094 144.363281 159.070312 144.371094 159.019531 144.382812 C 159.019531 144.382812 159.015625 144.382812 159.015625 144.382812 C 159.015625 144.390625 159.015625 144.390625 159.015625 144.398438 C 159.0625 144.371094 159.121094 144.371094 159.171875 144.351562 Z M 159.171875 144.351562 " fill-opacity="1" fill-rule="nonzero"/><path fill="#000000" d="M 205.367188 214.5 C 206 212.773438 206.714844 211.085938 207.363281 209.371094 C 207.546875 208.917969 207.832031 208.535156 208.195312 208.207031 C 210.246094 206.246094 212.398438 204.390625 214.445312 202.417969 C 214.382812 202.429688 214.351562 202.40625 214.363281 202.339844 C 211.585938 204.140625 208.867188 206.039062 206.117188 207.878906 C 205.84375 208.0625 205.730469 208.285156 205.679688 208.597656 C 205.183594 211.738281 204.503906 214.847656 204.046875 217.988281 C 204.617188 216.890625 204.871094 215.636719 205.367188 214.5 Z M 205.367188 214.5 " fill-opacity="1" fill-rule="nonzero"/><path fill="#000000" d="M 204.035156 218 C 204.027344 218 204.015625 218 204.015625 218 L 204.027344 218.007812 L 204.039062 218 C 204.039062 218 204.039062 217.992188 204.039062 217.988281 C 204.039062 217.992188 204.035156 217.996094 204.035156 218 Z M 204.035156 218 " fill-opacity="1" fill-rule="nonzero"/><path fill="#000000" d="M 214.773438 223.007812 C 208.886719 225.949219 211.054688 225.53125 204.59375 225.15625 C 210.964844 227.011719 209.644531 226.808594 214.808594 223.125 C 214.796875 223.082031 214.785156 223.046875 214.773438 223.007812 Z M 214.773438 223.007812 " fill-opacity="1" fill-rule="nonzero"/><path fill="#000000" d="M 165.699219 209.445312 C 165.988281 209.71875 166.183594 210.046875 166.335938 210.410156 C 167.613281 213.484375 168.75 216.503906 170.066406 219.582031 C 169.300781 216.175781 168.515625 212.816406 167.75 209.410156 C 167.644531 208.945312 167.417969 208.628906 167.015625 208.363281 C 164.164062 206.5 161.453125 204.421875 158.605469 202.546875 C 158.5625 202.5625 158.523438 202.578125 158.480469 202.59375 C 160.90625 204.855469 163.285156 207.164062 165.699219 209.445312 Z M 165.699219 209.445312 " fill-opacity="1" fill-rule="nonzero"/><path fill="#000000" d="M 164.308594 224.378906 C 163.230469 223.882812 162.15625 223.394531 161.074219 222.902344 C 161.070312 222.945312 161.070312 222.988281 161.070312 223.027344 C 162.429688 223.890625 163.789062 224.753906 165.144531 225.625 C 165.503906 225.859375 165.867188 225.941406 166.300781 225.84375 C 167.726562 225.488281 169.074219 225.4375 170.476562 224.898438 C 168.3125 224.941406 166.273438 225.386719 164.308594 224.378906 Z M 164.308594 224.378906 " fill-opacity="1" fill-rule="nonzero"/><path fill="#000000" d="M 207.128906 228.835938 C 207.121094 228.824219 207.117188 228.820312 207.109375 228.8125 C 196.347656 237.570312 177.789062 236.65625 167.070312 228.4375 C 168.058594 230.007812 169.410156 231.347656 170.613281 232.757812 C 171.242188 233.4375 171.972656 233.878906 172.84375 234.144531 C 177.929688 235.695312 183.277344 236.339844 188.585938 236.300781 C 193.25 236.28125 197.933594 235.621094 202.371094 234.160156 C 203.195312 233.867188 203.894531 233.421875 204.472656 232.757812 C 205.445312 231.546875 206.449219 230.265625 207.171875 228.914062 C 207.179688 228.910156 207.195312 228.902344 207.214844 228.886719 C 207.183594 228.867188 207.15625 228.851562 207.128906 228.835938 Z M 207.128906 228.835938 " fill-opacity="1" fill-rule="nonzero"/><path fill="#000000" d="M 138.914062 166.988281 C 139.488281 166.464844 139.816406 165.839844 139.976562 165.089844 C 140.433594 162.472656 141.671875 160.066406 142.539062 157.632812 C 141.152344 159.476562 139.652344 161.328125 138.851562 163.515625 C 138.179688 165.636719 137.320312 167.679688 136.53125 169.753906 C 136.488281 169.863281 136.394531 169.964844 136.515625 170.121094 C 137.246094 169.015625 137.933594 167.890625 138.914062 166.988281 Z M 138.914062 166.988281 " fill-opacity="1" fill-rule="nonzero"/><path fill="#000000" d="M 142.613281 157.621094 C 142.589844 157.621094 142.5625 157.625 142.53125 157.621094 C 142.535156 157.625 142.535156 157.632812 142.539062 157.632812 C 142.542969 157.632812 142.542969 157.625 142.542969 157.621094 C 142.566406 157.621094 142.59375 157.621094 142.613281 157.621094 Z M 142.613281 157.621094 " fill-opacity="1" fill-rule="nonzero"/><path fill="#000000" d="M 233.742188 159.484375 C 234.5 161.453125 235.144531 163.457031 235.636719 165.503906 C 235.773438 165.984375 235.917969 166.464844 236.265625 166.847656 C 237.195312 167.871094 237.929688 169.027344 238.597656 170.226562 C 238.660156 170.339844 238.703125 170.476562 238.898438 170.574219 C 238.269531 168.304688 237.140625 166.320312 236.558594 164.046875 C 235.996094 162.148438 234.617188 160.664062 233.679688 158.957031 C 233.601562 159.144531 233.679688 159.3125 233.742188 159.484375 Z M 233.742188 159.484375 " fill-opacity="1" fill-rule="nonzero"/><path fill="#000000" d="M 233.683594 158.953125 L 233.675781 158.949219 C 233.667969 158.953125 233.660156 158.953125 233.652344 158.957031 C 233.660156 158.953125 233.667969 158.953125 233.683594 158.953125 C 233.679688 158.953125 233.679688 158.957031 233.683594 158.957031 C 233.679688 158.953125 233.679688 158.953125 233.683594 158.953125 Z M 233.683594 158.953125 " fill-opacity="1" fill-rule="nonzero"/><path fill="#000000" d="M 233.457031 206.753906 C 232.699219 208.402344 231.96875 210.105469 230.914062 211.585938 C 231.074219 211.695312 231.160156 211.5625 231.226562 211.464844 C 233.175781 209.160156 234.777344 206.714844 236.429688 204.164062 C 235.359375 205.054688 234.019531 205.488281 233.457031 206.753906 Z M 233.457031 206.753906 " fill-opacity="1" fill-rule="nonzero"/><path fill="#000000" d="M 230.914062 211.585938 C 230.914062 211.625 230.921875 211.664062 230.917969 211.699219 C 230.925781 211.664062 230.925781 211.628906 230.914062 211.585938 C 230.914062 211.582031 230.914062 211.582031 230.914062 211.582031 C 230.914062 211.582031 230.914062 211.585938 230.914062 211.585938 Z M 230.914062 211.585938 " fill-opacity="1" fill-rule="nonzero"/><path fill="#000000" d="M 230.828125 211.871094 C 230.832031 211.871094 230.84375 211.878906 230.84375 211.878906 L 230.839844 211.859375 C 230.894531 211.816406 230.914062 211.761719 230.917969 211.699219 C 230.902344 211.761719 230.863281 211.820312 230.828125 211.871094 Z M 230.828125 211.871094 " fill-opacity="1" fill-rule="nonzero"/><path fill="#000000" d="M 138.964844 204.238281 C 138.972656 204.257812 138.976562 204.28125 138.984375 204.300781 C 138.984375 204.273438 138.988281 204.246094 138.988281 204.222656 C 138.980469 204.226562 138.964844 204.234375 138.964844 204.238281 Z M 138.964844 204.238281 " fill-opacity="1" fill-rule="nonzero"/><path fill="#000000" d="M 138.980469 204.300781 C 138.980469 204.3125 138.980469 204.328125 138.980469 204.34375 C 138.980469 204.34375 138.992188 204.328125 138.992188 204.328125 C 138.992188 204.320312 138.988281 204.3125 138.980469 204.300781 Z M 138.980469 204.300781 " fill-opacity="1" fill-rule="nonzero"/><path fill="#000000" d="M 138.980469 204.34375 C 138.988281 204.34375 138.992188 204.339844 139 204.332031 C 138.996094 204.332031 138.996094 204.332031 138.992188 204.328125 C 138.992188 204.328125 138.980469 204.34375 138.980469 204.34375 Z M 138.980469 204.34375 " fill-opacity="1" fill-rule="nonzero"/><path fill="#000000" d="M 139.105469 204.304688 C 139.046875 204.265625 139.027344 204.308594 139 204.332031 C 139.035156 204.359375 139.074219 204.386719 139.109375 204.414062 C 139.125 204.378906 139.175781 204.351562 139.105469 204.304688 Z M 139.105469 204.304688 " fill-opacity="1" fill-rule="nonzero"/></svg>